<svg xmlns="http://www.w3.org/2000/svg" width="512" height="512" fill="none" viewBox="0 0 512 512"><path fill="#1693D1" d="M186.575 162.152C204.721 177.464 234.004 193.426 259.419 203.385C237.557 187.519 215.801 169.636 194.085 146.23C212.161 107.684 233.744 54.4436 255.997 0.0983276C292.276 92.7959 359.896 232.3 450.483 397.816C425.874 384.303 403.575 376.609 380.553 370.664C388.183 375.019 406.218 384.861 417.79 392.772C436.071 405.269 452.988 418.935 468.897 432.021C483.097 458.132 497.471 484.78 512 511.902C439.744 470.064 369.527 436.174 312 425.706C330.833 321.235 257.119 259.599 215.24 326.097C199.114 351.699 194.753 393.882 202.4 425.229C129.667 439.235 58.5027 478.439 0 511.902C68.143 388.425 137.038 263.253 186.575 162.152Z"/></svg>