<svg xmlns="http://www.w3.org/2000/svg" width="32" height="32" fill="none" viewBox="0 0 32 32"><path fill="#3E83F7" d="M15.9317 4C15.7177 4 15.4976 4.11928 15.3536 4.36328C10.1266 12.9783 14.9818 20.024 18.1778 26.627C18.2888 26.848 18.5118 27 18.7618 27H26.3516C26.8346 27 27.1508 26.4725 26.9278 26.0215C26.9278 26.0215 16.7198 4.88052 16.4688 4.35352C16.3528 4.11952 16.1447 4 15.9317 4ZM15.8828 7.74414C18.0028 12.1381 22.3119 21.064 24.2129 25H19.6075C19.3175 24.419 19.0188 23.835 18.7168 23.248C16.1188 18.188 13.6478 13.3761 15.8828 7.74414ZM10.3164 14C10.0894 14 9.87408 14.1257 9.74808 14.3887L4.07035 26.0039C3.84935 26.4679 4.18677 27 4.67777 27H12.5762H12.5996C12.8496 27 13.0709 26.8442 13.1739 26.6152C14.8869 23.0132 13.8573 17.5377 10.8653 14.2617C10.7063 14.0897 10.5074 14 10.3164 14ZM10.5703 17.2598C11.9083 19.6338 12.3683 22.695 11.6563 25H6.78715L10.5703 17.2598Z"/></svg>