<svg xmlns="http://www.w3.org/2000/svg" width="129" height="129" fill="none" viewBox="0 0 129 129"><path fill="#00549D" fill-rule="evenodd" d="M61.5518 8.83119C63.3766 7.80725 65.6234 7.80725 67.4455 8.83119C76.4621 13.8917 103.595 29.1245 112.614 34.1851C114.439 35.2063 115.562 37.0983 115.562 39.1462C115.562 49.2673 115.562 79.7301 115.562 89.8512C115.562 91.8991 114.439 93.7911 112.614 94.8151C103.598 99.8756 76.4648 115.108 67.4455 120.169C65.6207 121.193 63.3739 121.193 61.5518 120.169C52.5352 115.108 25.4023 99.8756 16.383 94.8151C14.5609 93.7911 13.4375 91.9018 13.4375 89.8539C13.4375 79.7328 13.4375 49.27 13.4375 39.1489C13.4375 37.101 14.5609 35.209 16.3857 34.1851C25.3996 29.1245 52.5379 13.8917 61.5518 8.83119Z" clip-rule="evenodd"/><path fill="#0086D4" fill-rule="evenodd" d="M14.2545 92.4608C13.5396 91.504 13.4375 90.5957 13.4375 89.3728C13.4375 79.3108 13.4375 49.0227 13.4375 38.958C13.4375 36.9209 14.5582 35.0396 16.3776 34.0238C25.3619 28.9928 52.4036 13.8487 61.3879 8.81502C63.2073 7.79646 65.6718 7.81796 67.4912 8.83652C76.4755 13.8675 103.426 28.8826 112.41 33.9136C113.136 34.3221 113.689 34.8139 114.184 35.4616L14.2545 92.4608Z" clip-rule="evenodd"/><path fill="#fff" fill-rule="evenodd" d="M64.5 26.875C85.2663 26.875 102.125 43.7337 102.125 64.5C102.125 85.2663 85.2663 102.125 64.5 102.125C43.7337 102.125 26.875 85.2663 26.875 64.5C26.875 43.7337 43.7337 26.875 64.5 26.875ZM64.5 45.6875C74.8818 45.6875 83.3125 54.1155 83.3125 64.5C83.3125 74.8818 74.8818 83.3125 64.5 83.3125C54.1182 83.3125 45.6875 74.8818 45.6875 64.5C45.6875 54.1155 54.1155 45.6875 64.5 45.6875Z" clip-rule="evenodd"/><path fill="#0075C0" fill-rule="evenodd" d="M114.179 35.4885C115.565 36.7866 115.538 38.7431 115.538 40.283C115.538 50.4821 115.452 79.491 115.563 89.69C115.573 90.7543 115.221 91.875 114.694 92.7188L63.4062 64.5001L114.179 35.4885Z" clip-rule="evenodd"/><path fill="#fff" fill-rule="evenodd" d="M83.3125 56.4375H88.6875V72.5625H83.3125V56.4375ZM102.125 56.4375H107.5V72.5625H102.125V56.4375Z" clip-rule="evenodd"/><path fill="#fff" fill-rule="evenodd" d="M77.9375 61.8125H94.0625V67.1875H77.9375V61.8125ZM96.75 61.8125H112.875V67.1875H96.75V61.8125Z" clip-rule="evenodd"/></svg>