<svg xmlns="http://www.w3.org/2000/svg" width="160" height="160" fill="none" viewBox="0 0 160 160"><path fill="#E85454" d="M45.7706 124.628H38.0237C37.8 124.628 37.6184 124.446 37.6184 124.222V91.1271C37.6184 90.9034 37.8 90.7218 38.0237 90.7218H45.7706C45.9943 90.7218 46.1759 90.9034 46.1759 91.1271V124.223C46.1759 124.446 45.9943 124.628 45.7706 124.628Z"/><path fill="#E85454" d="M115.167 99.769C115.167 100.068 114.854 100.266 114.586 100.134C113.521 99.61 111.148 98.6243 107.967 98.6243C102.438 98.6243 98.6003 102.477 98.6003 107.671C98.6003 112.709 102.271 116.721 107.967 116.721C111.114 116.721 113.512 115.744 114.587 115.222C114.856 115.092 115.167 115.29 115.167 115.588V123.717C115.167 123.897 115.047 124.056 114.873 124.106C113.618 124.464 110.867 125.231 107.372 125.231C97.7456 125.231 89.2987 118.596 89.2987 107.671C89.2987 97.5434 96.9421 90.119 107.372 90.119C111.004 90.119 113.786 90.9193 114.88 91.2487C115.052 91.3003 115.167 91.4575 115.167 91.6362V99.769V99.769Z"/><path fill="#E85454" d="M25.8569 99.7671C25.8569 100.067 25.5441 100.264 25.275 100.131C24.2128 99.6071 21.845 98.6243 18.6691 98.6243C13.1269 98.6243 9.29156 102.477 9.29156 107.671C9.29156 112.709 12.9675 116.721 18.6691 116.721C21.8094 116.721 24.2034 115.747 25.2772 115.225C25.5456 115.094 25.8569 115.292 25.8569 115.59V123.717C25.8569 123.898 25.7378 124.057 25.5644 124.106C24.3184 124.465 21.5688 125.231 18.055 125.231C8.43688 125.231 0 118.596 0 107.671C0 97.5436 7.6425 90.1193 18.055 90.1193C21.6984 90.1193 24.48 90.919 25.5709 91.2486C25.7419 91.3005 25.8572 91.4574 25.8572 91.6361V99.7671H25.8569Z"/><path fill="#E85454" d="M160 107.671C160 117.37 152.512 125.231 142.084 125.231C131.656 125.231 124.177 117.37 124.177 107.671C124.177 97.9855 131.656 90.1193 142.084 90.1193C152.511 90.119 160 97.9852 160 107.671ZM142.084 98.7527C137.009 98.7527 133.238 102.746 133.238 107.671C133.238 112.606 137.009 116.596 142.084 116.596C147.154 116.596 150.935 112.606 150.935 107.671C150.935 102.746 147.154 98.7527 142.084 98.7527Z"/><path fill="#E85454" d="M78.625 97.9012C78.625 98.1656 78.3778 98.359 78.1216 98.2943C77.0103 98.0134 74.2716 97.3931 71.935 97.3931C68.5056 97.3931 66.6438 98.5415 66.6438 100.173C66.6438 102.238 69.1572 102.955 70.5666 103.401L72.9256 104.153C78.48 105.919 81.0091 109.722 81.0091 113.852C81.0091 122.369 73.52 125.231 66.9719 125.231C62.9856 125.231 59.2225 124.589 58.0653 124.37C57.8744 124.334 57.7366 124.167 57.7366 123.972V117.029C57.7366 116.763 57.9878 116.569 58.2447 116.637C59.5494 116.985 62.6281 117.765 65.8172 117.765C70.0731 117.765 72.0313 116.517 72.0313 114.597C72.0313 112.879 70.3375 111.886 68.2163 111.219C67.6966 111.047 66.9188 110.803 66.3884 110.631C61.6219 109.123 57.6506 106.323 57.6506 100.711C57.6506 94.3687 62.3969 90.109 70.2847 90.109C73.8744 90.109 77.2809 90.8596 78.3181 91.1121C78.4997 91.1562 78.6253 91.3184 78.6253 91.5053L78.625 97.9012Z"/><path fill="#D84848" d="M45.0771 124.223V91.1271C45.0771 90.9034 45.2587 90.7218 45.4825 90.7218H38.024C37.8003 90.7218 37.619 90.9034 37.619 91.1271V124.223C37.619 124.446 37.8006 124.628 38.024 124.628H45.4825C45.2584 124.628 45.0771 124.446 45.0771 124.223Z"/><path fill="#D84848" d="M114.586 100.134C114.854 100.266 115.167 100.068 115.167 99.7691V98.63C114.037 98.655 112.979 98.8406 112.015 99.1681C113.165 99.4831 114.045 99.8678 114.586 100.134Z"/><path fill="#D84848" d="M96.7571 107.671C96.7571 98.7359 102.709 91.9084 111.272 90.4237C110.143 90.2484 108.827 90.119 107.372 90.119C96.9421 90.119 89.2987 97.5434 89.2987 107.671C89.2987 118.596 97.7459 125.231 107.372 125.231C108.817 125.231 110.131 125.099 111.268 124.92C103.213 123.493 96.7571 117.222 96.7571 107.671Z"/><path fill="#D84848" d="M115.167 115.588C115.167 115.29 114.856 115.092 114.588 115.222C114.042 115.486 113.156 115.868 112.007 116.179C112.966 116.505 114.025 116.69 115.167 116.715V115.588Z"/><path fill="#D84848" d="M7.45844 107.671C7.45844 98.7353 13.41 91.9075 21.9625 90.4234C20.8328 90.2484 19.5147 90.119 18.0547 90.119C7.6425 90.119 0 97.5434 0 107.671C0 118.596 8.43688 125.231 18.055 125.231C19.505 125.231 20.8222 125.1 21.96 124.921C13.9094 123.496 7.45844 117.224 7.45844 107.671Z"/><path fill="#D84848" d="M131.636 107.671C131.636 99.185 137.378 92.0959 145.814 90.4703C144.621 90.2406 143.376 90.119 142.084 90.119C131.656 90.119 124.177 97.9853 124.177 107.671C124.177 117.37 131.656 125.231 142.084 125.231C143.376 125.231 144.621 125.109 145.814 124.88C137.378 123.255 131.636 116.169 131.636 107.671Z"/><path fill="#D84848" d="M78.1216 98.2943C78.3778 98.359 78.625 98.1656 78.625 97.9012V97.4159C77.6544 97.469 76.8306 97.6231 76.1641 97.8612C76.9866 98.019 77.6822 98.1831 78.1216 98.2943Z"/><path fill="#777" d="M6.96594 60.9257C6.96594 59.0082 5.40281 57.4541 3.48344 57.4541C1.56656 57.4538 0 59.0082 0 60.9257V68.2222C0 70.1497 1.56656 71.7038 3.48344 71.7038C5.4025 71.7038 6.96594 70.1497 6.96594 68.2222V60.9257Z"/><path fill="#777" d="M26.0981 51.3456C26.0981 49.4296 24.5341 47.8724 22.6156 47.8724C20.6966 47.8724 19.1322 49.4296 19.1322 51.3456V68.2218C19.1322 70.1493 20.6969 71.7034 22.6156 71.7034C24.5341 71.7034 26.0981 70.1493 26.0981 68.2218V51.3456Z"/><path fill="#777" d="M45.2306 38.2394C45.2306 36.3237 43.6653 34.769 41.7469 34.769C39.8287 34.769 38.2634 36.3237 38.2634 38.2394V75.1581C38.2634 77.084 39.8287 78.6397 41.7469 78.6397C43.6653 78.6397 45.2306 77.0844 45.2306 75.1581V38.2394Z"/><path fill="#646566" d="M3.91719 68.2222V60.9256C3.91719 59.7331 4.52344 58.6822 5.4425 58.0569C4.88375 57.6769 4.20937 57.4537 3.48375 57.4537C1.56656 57.4537 0 59.0081 0 60.9256V68.2222C0 70.1497 1.56656 71.7037 3.48375 71.7037C4.20969 71.7037 4.88406 71.4809 5.4425 71.1003C4.52344 70.4744 3.91719 69.4206 3.91719 68.2222Z"/><path fill="#646566" d="M23.049 68.2222V51.3459C23.049 50.1544 23.6546 49.1022 24.5737 48.4766C24.015 48.0962 23.3409 47.8728 22.6156 47.8728C20.6965 47.8728 19.1318 49.43 19.1318 51.3459V68.2222C19.1318 70.1497 20.6965 71.7037 22.6156 71.7037C23.3409 71.7037 24.0153 71.4809 24.5737 71.1003C23.6546 70.4744 23.049 69.4206 23.049 68.2222Z"/><path fill="#646566" d="M42.1804 75.1581V38.2394C42.1804 37.0481 42.7863 35.9969 43.7057 35.3719C43.1466 34.9919 42.4722 34.769 41.7469 34.769C39.8288 34.769 38.2632 36.3237 38.2632 38.2394V75.1581C38.2632 77.084 39.8285 78.6397 41.7469 78.6397C42.4722 78.6397 43.1466 78.4169 43.7057 78.0362C42.7863 77.41 42.1804 76.3559 42.1804 75.1581Z"/><path fill="#777" d="M83.4834 60.9257C83.4834 59.0082 81.9203 57.4541 80.0009 57.4541C78.084 57.4541 76.5175 59.0082 76.5175 60.9257V68.2222C76.5175 70.1497 78.084 71.7038 80.0009 71.7038C81.92 71.7038 83.4834 70.1497 83.4834 68.2222V60.9257Z"/><path fill="#646566" d="M80.4344 68.2222V60.9256C80.4344 59.7331 81.0406 58.6822 81.9597 58.0569C81.401 57.6769 80.7266 57.4537 80.001 57.4537C78.0841 57.4537 76.5172 59.0078 76.5172 60.9253V68.2219C76.5172 70.1494 78.0838 71.7034 80.001 71.7034C80.7269 71.7034 81.4013 71.4806 81.9597 71.1C81.0406 70.4744 80.4344 69.4206 80.4344 68.2222Z"/><path fill="#777" d="M64.3572 51.3456C64.3572 49.4296 62.7931 47.8724 60.8747 47.8724C58.9556 47.8724 57.3912 49.4296 57.3912 51.3456V68.2218C57.3912 70.1493 58.9559 71.7034 60.8747 71.7034C62.7931 71.7034 64.3572 70.1493 64.3572 68.2218V51.3456Z"/><path fill="#646566" d="M61.3082 68.2222V51.3459C61.3082 50.1544 61.9138 49.1022 62.8329 48.4766C62.2741 48.0962 61.6001 47.8728 60.8747 47.8728C58.9557 47.8728 57.391 49.43 57.391 51.3459V68.2222C57.391 70.1497 58.9557 71.7037 60.8747 71.7037C61.6001 71.7037 62.2744 71.4809 62.8329 71.1003C61.9138 70.4744 61.3082 69.4206 61.3082 68.2222Z"/><path fill="#777" d="M102.61 51.3456C102.61 49.4296 101.046 47.8724 99.1272 47.8724C97.2082 47.8724 95.6438 49.4296 95.6438 51.3456V68.2218C95.6438 70.1493 97.2085 71.7034 99.1272 71.7034C101.046 71.7034 102.61 70.1493 102.61 68.2218V51.3456Z"/><path fill="#777" d="M121.742 38.2394C121.742 36.3237 120.177 34.769 118.258 34.769C116.34 34.769 114.775 36.3237 114.775 38.2394V75.1581C114.775 77.084 116.34 78.6397 118.258 78.6397C120.177 78.6397 121.742 77.0844 121.742 75.1581V38.2394Z"/><path fill="#646566" d="M99.5606 68.2222V51.3459C99.5606 50.1544 100.166 49.1022 101.085 48.4766C100.527 48.0962 99.8525 47.8728 99.1272 47.8728C97.2081 47.8728 95.6434 49.43 95.6434 51.3459V68.2222C95.6434 70.1497 97.2081 71.7037 99.1272 71.7037C99.8525 71.7037 100.527 71.4809 101.085 71.1003C100.166 70.4744 99.5606 69.4206 99.5606 68.2222Z"/><path fill="#646566" d="M118.692 75.1581V38.2394C118.692 37.0481 119.298 35.9969 120.217 35.3719C119.658 34.9919 118.984 34.769 118.258 34.769C116.34 34.769 114.775 36.3237 114.775 38.2394V75.1581C114.775 77.084 116.34 78.6397 118.258 78.6397C118.984 78.6397 119.658 78.4169 120.217 78.0362C119.298 77.41 118.692 76.3559 118.692 75.1581Z"/><path fill="#777" d="M159.995 60.9257C159.995 59.0082 158.432 57.4541 156.512 57.4541C154.595 57.4541 153.029 59.0082 153.029 60.9257V68.2222C153.029 70.1497 154.595 71.7038 156.512 71.7038C158.431 71.7038 159.995 70.1497 159.995 68.2222V60.9257Z"/><path fill="#646566" d="M156.946 68.2222V60.9256C156.946 59.7331 157.552 58.6822 158.471 58.0569C157.913 57.6769 157.238 57.4537 156.513 57.4537C154.596 57.4537 153.029 59.0078 153.029 60.9253V68.2219C153.029 70.1494 154.595 71.7034 156.513 71.7034C157.238 71.7034 157.913 71.4806 158.471 71.1C157.552 70.4744 156.946 69.4206 156.946 68.2222Z"/><path fill="#777" d="M140.868 51.3456C140.868 49.4296 139.304 47.8724 137.386 47.8724C135.467 47.8724 133.902 49.4296 133.902 51.3456V68.2218C133.902 70.1493 135.467 71.7034 137.386 71.7034C139.304 71.7034 140.868 70.1493 140.868 68.2218V51.3456Z"/><path fill="#646566" d="M137.82 68.2222V51.3459C137.82 50.1544 138.425 49.1022 139.344 48.4766C138.786 48.0962 138.112 47.8728 137.386 47.8728C135.467 47.8728 133.902 49.43 133.902 51.3459V68.2222C133.902 70.1497 135.467 71.7037 137.386 71.7037C138.112 71.7037 138.786 71.4809 139.344 71.1003C138.425 70.4744 137.82 69.4206 137.82 68.2222Z"/><path fill="#D84848" d="M69.7072 111.787C60.5097 103.087 66.781 94.9178 66.781 94.9178L66.7813 94.9181C68.3413 92.6103 70.9444 91.0112 74.3928 90.3937C73.1478 90.2312 71.7325 90.1084 70.2841 90.1084C62.3963 90.1084 57.65 94.3681 57.65 100.71C57.65 106.322 61.6213 109.122 66.3878 110.63C66.9181 110.802 67.696 111.046 68.2156 111.219C68.7463 111.386 69.25 111.573 69.7072 111.787Z"/><path fill="#D84848" d="M65.195 117.754C62.2341 117.664 59.4641 116.962 58.2447 116.637C57.9878 116.568 57.7366 116.763 57.7366 117.029V123.972C57.7366 124.166 57.8744 124.334 58.0653 124.37C59.0628 124.559 61.9981 125.061 65.3422 125.196C64.4319 121.658 65.195 117.754 65.195 117.754Z"/></svg>