<svg xmlns="http://www.w3.org/2000/svg" width="134" height="134" fill="none" viewBox="0 0 134 134"><path fill="#0277BD" d="M114.458 13.9583H19.5416L27.9166 108.875L67 120.042L106.083 108.875L114.458 13.9583Z"/><path fill="#039BE5" d="M67 22.3333V111.388L98.2667 102.454L105.246 22.3333H67Z"/><path fill="#fff" d="M92.4042 36.2917H67V47.4583H80.6792L79.8417 58.625H67V69.7917H79.2833L78.4458 82.3542L67 86.2625V97.9875L89.0542 90.7292L91.0083 58.625L92.4042 36.2917Z"/><path fill="#EEE" d="M67 36.2917V47.4583H42.1542L41.3167 36.2917H67ZM54.1583 58.625L54.7167 69.7917H67V58.625H54.1583ZM55.275 75.375H44.1083L44.9458 90.7292L67 97.9875V86.2625L55.5541 82.3542L55.275 75.375Z"/></svg>