<svg xmlns="http://www.w3.org/2000/svg" width="141" height="142" fill="none" viewBox="0 0 141 142"><path fill="#FEFEFE" d="M57.9799 141.49C30.2473 136.448 7.96214 115.031 1.85437 87.5186C0.0880629 79.6975 -0.0494995 63.8335 1.58089 56.4007C4.55224 42.8663 10.7701 31.2179 20.0693 21.7327C29.9188 11.6374 40.5936 5.59129 55.0102 1.87488C59.0325 0.843164 61.228 0.676758 70.6923 0.676758C80.1566 0.676758 82.3576 0.844273 86.3744 1.87488C114.162 8.97488 133.861 29.11 139.859 56.4007C140.921 61.2708 141.13 63.778 141.102 71.6546C141.078 79.8085 140.878 81.9163 139.644 87.2413C134.802 108.098 121.211 125.57 102.447 135.111C97.605 137.574 88.691 140.491 82.9133 141.49C76.8056 142.56 64.0948 142.538 58.0971 141.452L57.9799 141.49Z"/><path fill="#FCFBFB" d="M65.1331 125.958C52.6424 122.808 41.5274 111.204 30.6874 90.0701C15.2254 59.8951 13.2445 32.3826 25.9168 24.0623C30.2582 21.3554 36.5916 21.4553 42.2042 24.308C45.3186 25.8944 46.2045 26.8929 47.9818 30.7979C50.1663 35.607 51.0192 41.115 51.3878 52.7635L51.7279 63.469L53.4777 59.4253C54.4406 57.201 56.383 53.3792 57.7971 50.8831C59.2113 48.4147 60.3723 45.719 60.3723 44.8925C60.3723 44.0715 59.756 41.9249 58.9967 40.1111C57.5881 36.7386 57.3625 34.9081 57.9622 31.8462C58.3056 30.1156 58.3094 30.11 61.9515 30.11L65.5942 30.1079L67.8667 27.1459C70.4309 23.7956 75.4051 19.7131 79.6971 17.4943C82.1842 16.1964 83.2462 15.9856 87.2905 15.9856C91.4614 15.9856 92.2868 16.1625 94.6639 17.5609C96.1276 18.4262 97.2061 19.2527 97.063 19.3969C96.9199 19.5411 95.3737 19.2383 93.6184 18.7258C89.2494 17.4444 84.8694 17.9048 80.4124 20.1125C69.8476 25.3487 59.1177 45.0734 63.2996 51.5078C63.8664 52.3842 65.2475 53.1663 67.2394 53.7487C70.4749 54.6972 72.0376 54.4476 69.3359 53.4115C63.6683 51.2426 64.8403 46.0896 73.1326 36.7154L77.8593 31.3737L77.5462 28.3174C77.2628 25.5495 77.3497 25.1945 78.4706 24.5899C80.0113 23.7579 82.5259 24.2277 84.3583 25.6937C86.0971 27.0749 91.5115 27.2025 96.0786 25.9761C97.7403 25.5257 100.646 25.1551 102.517 25.1496C105.719 25.1434 105.967 25.2356 106.291 26.5308C106.481 27.2907 106.496 28.2836 106.325 28.7329C106.154 29.1822 106.533 30.7297 107.167 32.1775C108.592 35.4279 109.126 43.1048 108.218 47.3204C107.867 48.9734 106.6 52.357 105.401 54.8642C102.402 61.0767 102.287 62.0197 104.009 66.1244C106.964 73.1689 109.121 86.6478 108.565 94.4689C108.4 96.7708 107.607 101.902 106.799 105.84C105.258 113.439 105.379 116.102 107.349 117.766C107.801 118.145 108.174 119.252 108.174 120.229C108.174 122.292 106.633 123.951 103.827 124.893C101.197 125.781 95.5184 125.681 92.7672 124.693C89.4822 123.523 86.7695 123.656 84.5134 125.094C82.8187 126.176 81.7347 126.337 75.4343 126.459C70.5756 126.551 67.2356 126.335 65.0346 125.782L65.1331 125.958ZM56.7693 106.433C51.8776 91.956 53.3962 75.7037 61.2208 58.7857L63.5759 53.7048L61.0557 51.4971L58.8492 56.3007C49.8802 75.8257 48.5045 93.021 54.9314 105.834C56.6317 109.229 58.1724 111.88 58.4585 111.88C58.5345 111.88 57.7762 109.445 56.7748 106.472L56.7693 106.433ZM98.8634 57.8982L100.019 54.9861L99.768 57.4101C99.6255 58.7913 99.7241 59.6289 99.9969 59.3515C100.447 58.8978 103.282 51.7523 103.282 51.0312C103.282 50.8587 102.534 51.354 101.615 52.1295C99.9144 53.5717 96.8605 54.6866 94.5715 54.6921C93.4159 54.695 93.3389 54.8746 93.658 56.7778C94.2853 60.533 94.4504 60.7992 96.1122 60.7992C97.4988 60.7992 97.8289 60.4503 98.8469 57.8871L98.8634 57.8982Z"/><path fill="#FBFBFB" d="M65.1331 125.958C52.6424 122.808 41.5273 111.204 30.6874 90.0701C18.857 66.9396 14.7852 45.5287 19.6824 32.3826C23.204 22.8974 32.6133 19.6248 42.2427 24.506C45.3571 26.0924 46.243 27.0909 48.0203 30.9959C50.2048 35.805 51.0577 41.313 51.4263 52.9615L51.7664 63.667L53.5162 59.6233C54.4791 57.399 56.4215 53.5772 57.8356 51.0811C59.2498 48.6127 60.4108 45.917 60.4108 45.0905C60.4108 44.2695 59.7945 42.1229 59.0352 40.3091C57.6265 36.9366 57.4009 35.1061 58.0007 32.0442C58.3441 30.3136 58.3479 30.308 61.99 30.308L65.6327 30.3059L67.9052 27.3439C70.4694 23.9936 75.4436 19.9111 79.7356 17.6923C82.2227 16.3944 83.2847 16.1836 87.329 16.1836C91.4999 16.1836 92.3253 16.3605 94.7024 17.7589C96.1661 18.6242 97.2446 19.4507 97.1015 19.5949C96.9584 19.7391 95.4122 19.4363 93.6569 18.9238C89.2879 17.6424 84.9079 18.1028 80.4509 20.3105C69.8861 25.5467 59.1562 45.2714 63.3381 51.7058C63.9049 52.5822 65.286 53.3643 67.2779 53.9467C70.5134 54.8952 72.0761 54.6456 69.3744 53.6095C63.7068 51.4406 64.8788 46.2876 73.1711 36.9134L77.8978 31.5717L77.5847 28.5154C77.3013 25.7475 77.3882 25.3925 78.5091 24.7879C80.0498 23.9559 82.5644 24.4257 84.3968 25.8917C86.1356 27.2729 91.55 27.4005 96.1171 26.1741C97.7788 25.7237 100.684 25.3531 102.555 25.3476C105.757 25.3414 106.005 25.4336 106.33 26.7288C106.52 27.4887 106.535 28.4816 106.364 28.9309C106.193 29.3802 106.572 30.9277 107.206 32.3755C108.631 35.6259 109.165 43.3028 108.257 47.5184C107.906 49.1714 106.639 52.555 105.439 55.0622C102.441 61.2747 102.325 62.2177 104.047 66.3224C107.002 73.3669 109.159 86.8458 108.603 94.6669C108.439 96.9688 107.646 102.1 106.837 106.038C105.296 113.637 105.417 116.3 107.387 117.964C107.84 118.343 108.213 119.45 108.213 120.427C108.213 122.49 106.672 124.149 103.866 125.091C101.236 125.979 95.5569 125.879 92.8057 124.891C89.5207 123.721 86.808 123.854 84.5519 125.292C82.8572 126.374 81.7732 126.535 75.4728 126.657C70.6141 126.749 67.2741 126.533 65.0731 125.98L65.1331 125.958ZM56.7693 106.433C51.8775 91.956 53.3962 75.7037 61.2208 58.7857L63.5758 53.7048L61.0557 51.4971L58.8492 56.3007C49.8801 75.8257 48.5045 93.021 54.9314 105.834C56.6317 109.229 58.1724 111.88 58.4585 111.88C58.5345 111.88 57.7762 109.445 56.7748 106.472L56.7693 106.433ZM98.8634 57.8982L100.019 54.9861L99.768 57.4101C99.6255 58.7912 99.7241 59.6288 99.9969 59.3515C100.447 58.8977 103.282 51.7523 103.282 51.0312C103.282 50.8587 102.534 51.354 101.615 52.1295C99.9144 53.5716 96.8605 54.6866 94.5714 54.6921C93.4159 54.6949 93.3389 54.8746 93.658 56.7777C94.2853 60.533 94.4504 60.7992 96.1121 60.7992C97.4988 60.7992 97.8289 60.4503 98.8469 57.8871L98.8634 57.8982Z"/><path fill="#A08470" d="M65.1331 125.958C58.31 124.233 50.2213 118.692 44.4437 111.758C34.7593 100.165 24.4146 79.4756 20.1226 63.2787C18.5819 57.399 18.3398 55.5131 18.1087 47.3592C17.8771 39.0944 17.9728 37.7076 18.9946 34.2686C20.3813 29.6591 21.9164 27.2795 24.9923 24.8944C29.4439 21.4719 36.0524 21.2889 42.2152 24.4179C45.3296 26.0043 46.2155 27.0027 47.9928 30.9077C50.1773 35.7169 51.0302 41.2249 51.3988 52.8733L51.7389 63.5788L53.4887 59.5351C54.4516 57.3108 56.394 53.489 57.8082 50.993C59.2223 48.5246 60.3833 45.8288 60.3833 45.0023C60.3833 44.1814 59.767 42.0348 59.0077 40.2209C57.5991 36.8484 57.3735 35.018 57.9732 31.9561C58.3166 30.2255 58.3204 30.2199 61.9625 30.2199L65.6052 30.2178L67.8777 27.2558C70.4419 23.9055 75.4162 19.823 79.7081 17.6042C82.1952 16.3062 83.2572 16.0955 87.3015 16.0955C91.4724 16.0955 92.2978 16.2724 94.6749 17.6708C96.1386 18.5361 97.2171 19.3626 97.074 19.5068C96.9309 19.651 95.3847 19.3481 93.6294 18.8356C89.2604 17.5543 84.8804 18.0147 80.4234 20.2223C69.8586 25.4586 59.1288 45.1833 63.3107 51.6176C63.8774 52.4941 65.2585 53.2762 67.2504 53.8586C70.4859 54.8071 72.0486 54.5575 69.3469 53.5213C63.6793 51.3525 64.8514 46.1995 73.1436 36.8252L77.8703 31.4836L77.5572 28.4273C77.2738 25.6594 77.3607 25.3044 78.4816 24.6998C80.0223 23.8677 82.5369 24.3376 84.3693 25.8036C86.1081 27.1848 91.5225 27.3123 96.0896 26.0859C97.7513 25.6355 100.657 25.265 102.528 25.2595C105.73 25.2533 105.978 25.3454 106.302 26.6406C106.492 27.4005 106.507 28.3934 106.336 28.8427C106.165 29.292 106.544 30.8396 107.178 32.2873C108.603 35.5378 109.137 43.2147 108.229 47.4303C107.878 49.0833 106.611 52.4669 105.412 54.9741C102.413 61.1866 102.298 62.1295 104.02 66.2342C106.975 73.2787 109.132 86.7577 108.576 94.5788C108.411 96.8807 107.618 102.012 106.81 105.95C105.269 113.549 105.39 116.212 107.36 117.876C107.812 118.254 108.185 119.362 108.185 120.338C108.185 122.402 106.644 124.06 103.838 125.003C101.208 125.891 95.5294 125.791 92.7782 124.803C89.4932 123.633 86.7805 123.766 84.5244 125.204C82.8297 126.286 81.7457 126.447 75.4453 126.569C70.5866 126.661 67.2466 126.444 65.0456 125.892L65.1331 125.958ZM56.7693 106.433C51.8776 91.9561 53.3962 75.7037 61.2208 58.7858L63.5759 53.7048L61.0557 51.4972L58.8492 56.3008C49.8802 75.8258 48.5045 93.0211 54.9314 105.834C56.6317 109.229 58.1724 111.88 58.4585 111.88C58.5345 111.88 57.7762 109.445 56.7748 106.472L56.7693 106.433ZM98.8634 57.8983L100.019 54.9862L99.768 57.4101C99.6255 58.7913 99.7241 59.6289 99.9969 59.3515C100.447 58.8978 103.282 51.7523 103.282 51.0312C103.282 50.8587 102.534 51.3541 101.615 52.1295C99.9144 53.5717 96.8605 54.6866 94.5714 54.6922C93.4159 54.695 93.3389 54.8747 93.658 56.7778C94.2853 60.533 94.4504 60.7993 96.1121 60.7993C97.4988 60.7993 97.8289 60.4504 98.8469 57.8872L98.8634 57.8983Z"/><path fill="#45352F" d="M65.1331 125.958C52.8075 122.553 41.5273 110.372 30.9075 89.0716C21.9384 71.0998 18.1417 56.7888 18.747 43.6427C19.2455 32.8818 22.2576 26.9466 28.5965 24.1732C32.1511 22.6312 37.2354 22.8364 41.4173 24.6902C46.276 26.8313 48.0203 29.3052 50.0562 36.8378C51.0026 40.3712 51.2392 43.3277 51.4704 54.1441L51.7493 67.1792L52.6958 64.4058C53.7357 61.3661 57.593 53.423 59.5739 50.3167C61.4282 47.3547 61.5823 44.4371 60.0559 41.1089C59.2415 39.345 58.7738 37.2927 58.7738 35.4511C58.7655 30.9914 58.9103 30.8361 63.0933 30.7973L66.7469 30.7657L68.8159 28.0255C71.358 24.6641 76.1342 20.8146 80.4812 18.5958C83.2599 17.1869 84.3439 16.9484 87.9096 16.9706C91.3156 16.9911 92.5427 17.2524 94.5676 18.3906C95.9322 19.1561 96.5485 19.6275 95.9432 19.4334C88.1297 16.9484 81.2515 18.7955 74.5935 25.2022C66.3398 33.0787 60.7272 46.5022 63.4785 51.7717C64.5294 53.824 64.2928 54.0237 62.7686 52.3707L61.6901 51.2004L60.6172 53.3415C58.2181 58.1229 54.3993 68.5954 52.9687 74.3641C51.6591 79.6447 51.4555 81.575 51.461 88.5086C51.4711 95.7196 51.6233 96.9954 52.9412 100.989C54.7075 106.336 59.159 113.913 61.36 115.245C61.6742 115.437 61.3276 113.303 60.5896 110.502C58.9939 104.456 58.6308 94.0833 59.8908 90.4778L60.6447 88.3256L62.3394 91.3098C65.2393 96.424 73.6196 103.957 77.4713 104.955C80.3436 105.682 80.2776 101.899 77.2683 93.7504C74.6711 86.7059 74.1539 84.0434 74.1319 77.3872C74.1118 70.7864 74.9297 67.7911 78.6659 60.9684C81.2191 56.2813 81.4007 54.2567 79.7719 49.0426C79.1721 47.1068 78.6769 45.2042 78.6714 44.8159C78.6676 44.4248 79.9645 45.0838 81.5547 46.2803C85.6156 49.3422 90.964 51.9381 93.9904 52.2709C96.2354 52.5388 96.8076 52.3846 98.3153 51.1061C100.192 49.5141 102.316 44.6162 102.316 41.8982C102.316 40.9941 102.552 40.2564 102.841 40.2564C103.556 40.2564 104.129 43.6289 103.876 46.3025L103.666 48.5157L105.19 47.0402C106.032 46.2304 107.215 44.3 107.831 42.758L108.943 39.9513L108.761 44.6828C108.596 48.965 108.333 49.9412 105.998 55C104.419 58.4057 103.418 61.3234 103.418 62.5437C103.418 63.6475 104.161 66.421 105.069 68.7007C108.937 78.4633 109.966 93.4953 107.545 104.811C105.712 113.353 105.734 116.182 107.634 118.456C108.833 119.893 109.009 120.47 108.597 121.629C107.832 123.798 105.642 125.107 101.609 125.8C98.3016 126.372 97.5697 126.314 94.1802 125.212C89.3985 123.659 88.2925 123.681 85.1561 125.378C82.757 126.665 82.0527 126.759 75.2516 126.715C70.9597 126.686 66.8328 126.355 65.2371 125.916L65.1331 125.958ZM97.928 61.0599C98.4023 60.6783 99.078 59.8674 99.4356 59.2572C100.046 58.2033 100.063 58.2088 99.7421 59.3959C99.2359 61.2596 100.413 60.9157 101.448 58.8894C102.719 56.41 104.485 51.0683 104.15 50.7355C103.994 50.5791 103.187 51.1033 102.361 51.9004C100.512 53.6754 98.383 54.5296 95.8133 54.5296H93.8545L94.1169 57.2864C94.4955 61.258 95.9328 62.6669 97.9467 61.0472L97.928 61.0599ZM97.0035 36.0435C91.446 33.4088 90.1254 29.7201 93.9772 27.8341C96.4918 26.5972 103.221 25.4434 105.147 25.9316C106.468 26.266 106.649 26.575 106.649 28.5386C106.649 32.3548 103.238 37.4136 100.652 37.3581C100.163 37.3554 98.5222 36.7646 97.009 36.0435H97.0035ZM78.24 32.7875C78.8893 31.778 78.9278 31.1013 78.4254 29.2264C77.2754 24.9276 79.9221 23.9735 85.3586 26.7303L88.4455 28.3001L85.5402 29.2209C83.9445 29.7284 81.6224 31.0181 80.3843 32.0886C77.7762 34.3406 77.1159 34.557 78.2549 32.7875H78.24Z"/></svg>