<svg xmlns="http://www.w3.org/2000/svg" width="219" height="219" fill="none" viewBox="0 0 219 219"><path fill="#0080FF" d="M109.5 20.5312C60.4372 20.5312 20.5312 60.444 20.5312 109.5H54.75C54.75 79.2643 79.2643 54.75 109.5 54.75C139.736 54.75 164.25 79.2643 164.25 109.5C164.25 139.736 139.736 164.25 109.5 164.25V198.469C158.563 198.469 198.469 158.556 198.469 109.5C198.469 60.444 158.563 20.5312 109.5 20.5312ZM109.5 164.25V123.188H68.4375V164.25H109.5ZM68.4375 164.25H41.0625V191.625H68.4375V164.25ZM41.0625 164.25V143.719H20.5312V164.25H41.0625Z"/></svg>