<svg xmlns="http://www.w3.org/2000/svg" width="155" height="155" fill="none" viewBox="0 0 155 155"><path fill="#004D40" fill-rule="evenodd" d="M25.8333 51.6666V92.5027C21.4901 93.3229 19.2103 93.6458 15.7519 93.6458C5.39271 93.6361 0 89.0119 0 80.135C0 71.5809 5.71885 66.03 14.5829 66.03C15.9585 66.03 17.0048 66.1365 18.2739 66.4627V51.6666H25.8333ZM18.2739 73.2116C17.2793 72.8887 16.4623 72.7789 15.4128 72.7789C11.1245 72.7789 8.64448 75.3913 8.64448 79.9735C8.64448 84.433 11.0147 86.8936 15.3579 86.8936C16.2976 86.8936 17.0597 86.8419 18.2739 86.6772V73.2116V73.2116Z" clip-rule="evenodd"/><path fill="#004D40" fill-rule="evenodd" d="M38.75 64.7319V86.1025C38.75 92.8063 38.2495 96.5134 36.7738 99.2905C35.3981 101.961 33.5866 103.647 29.844 105.507L21.9745 101.796C25.7171 100.056 27.5319 98.5187 28.6879 96.1711C29.8989 93.7718 30.2831 90.5071 30.2831 83.1995V64.7255H38.75V64.7319Z" clip-rule="evenodd"/><path fill="#004D40" d="M38.75 51.6666H30.2799V60.4274H38.75V51.6666Z"/><path fill="#004D40" fill-rule="evenodd" d="M44.3494 67.412C48.0177 65.6295 51.5278 64.8448 55.3544 64.8448C59.6201 64.8448 62.423 66.017 63.663 68.3097C64.3573 69.5917 64.5834 71.2612 64.5834 74.8359V92.296C60.8634 92.8482 56.1681 93.2454 52.7226 93.2454C45.7605 93.2454 42.6379 90.7331 42.6379 85.1563C42.6379 79.1242 46.7874 76.3375 56.9787 75.4494V73.5604C56.9787 72.0007 56.2198 71.4356 54.1241 71.4356C51.0564 71.4356 47.6012 72.3333 44.3591 74.0577L44.3494 67.412ZM57.3532 81.0746C51.8572 81.6268 50.0715 82.5245 50.0715 84.7591C50.0715 86.4318 51.0984 87.2165 53.3652 87.2165C54.6052 87.2165 55.7387 87.1067 57.3532 86.829V81.0746Z" clip-rule="evenodd"/><path fill="#004D40" fill-rule="evenodd" d="M69.1624 66.8212C74.0707 65.4617 78.1136 64.8417 82.2114 64.8417C86.4675 64.8417 89.5513 65.8653 91.379 67.8448C93.0969 69.7113 93.6459 71.7585 93.6459 76.1212V93.2454H85.334V76.4699C85.334 73.118 84.2523 71.8716 81.2911 71.8716C80.1577 71.8716 79.1308 71.9846 77.4613 72.5013V93.2486H69.1624V66.8212V66.8212Z" clip-rule="evenodd"/><path fill="#004D40" fill-rule="evenodd" d="M97.4466 96.8944C100.414 98.4638 103.385 99.1871 106.527 99.1871C112.084 99.1871 114.451 97.6597 114.451 92.1605V91.9925C112.804 92.8257 111.141 93.1744 108.949 93.1744C101.515 93.1744 96.875 88.1789 96.875 80.2674C96.875 70.4411 103.789 64.8901 116.166 64.8901C119.802 64.8901 123.164 65.2809 127.232 66.1269L124.329 72.3592C122.072 71.9136 124.145 72.2914 122.444 72.1267V73.0276L122.553 76.6766L122.608 81.3944C122.663 82.5763 122.663 83.7517 122.718 84.9336V87.2909C122.718 94.7018 122.104 97.4014 120.293 100.272C117.651 104.476 113.079 106.559 106.582 106.559C103.275 106.559 100.414 106.059 97.4466 104.877V96.8944V96.8944ZM114.287 71.8522H114.012H113.399C111.752 71.7973 109.821 72.243 108.497 73.089C106.469 74.2676 105.419 76.4053 105.419 79.4311C105.419 83.7485 107.515 86.2188 111.258 86.2188C112.414 86.2188 113.353 85.996 114.445 85.6634V85.0401V82.6828C114.445 81.6689 114.39 80.5451 114.39 79.3665L114.335 75.3817L114.28 72.5207V71.8522H114.287Z" clip-rule="evenodd"/><path fill="#004D40" fill-rule="evenodd" d="M140.682 64.7319C149.572 64.7319 155 70.0923 155 78.7723C155 87.6719 149.343 93.2487 140.327 93.2487C131.427 93.2487 125.938 87.8915 125.938 79.2664C125.954 70.3119 131.611 64.7319 140.682 64.7319ZM140.498 86.3867C143.911 86.3867 145.926 83.6807 145.926 78.979C145.926 74.3322 143.966 71.5713 140.556 71.5713C137.026 71.5713 135.008 74.2774 135.008 78.979C135.011 83.6807 137.039 86.3867 140.498 86.3867Z" clip-rule="evenodd"/></svg>