<svg width="48" height="48" viewBox="0 0 48 48" fill="none" xmlns="http://www.w3.org/2000/svg">
<g clip-path="url(#clip0_74325_18050)">
<path d="M47.527 19.847C47.397 19.745 46.182 18.84 43.619 18.84C42.942 18.843 42.267 18.9 41.6 19.011C41.104 15.657 38.381 14.081 38.255 14.008L37.567 13.616L37.114 14.26C36.547 15.126 36.046 16.02 35.803 17.023C35.344 18.938 35.623 20.736 36.609 22.273C35.417 22.928 33.386 22.986 33 23H1.58201C0.756007 23.001 0.0860069 23.66 0.0810069 24.474C0.0440069 27.207 0.434007 30.027 1.38701 32.593C2.47601 35.411 4.09701 37.487 6.20501 38.757C8.56701 40.184 12.405 41 16.756 41C18.721 41.006 20.683 40.831 22.615 40.476C25.301 39.989 27.886 39.063 30.262 37.736C32.22 36.617 33.982 35.194 35.481 33.521C37.986 30.723 39.478 27.608 40.588 24.839C40.737 24.839 40.886 24.839 41.03 24.839C43.773 24.839 45.459 23.756 46.389 22.849C47.007 22.27 47.49 21.565 47.803 20.784L48 20.216L47.527 19.847Z" fill="#2395EC"/>
<path d="M8 22H5C4.448 22 4 21.552 4 21V18C4 17.448 4.448 17 5 17H8C8.552 17 9 17.448 9 18V21C9 21.552 8.552 22 8 22Z" fill="#2395EC"/>
<path d="M14 22H11C10.448 22 10 21.552 10 21V18C10 17.448 10.448 17 11 17H14C14.552 17 15 17.448 15 18V21C15 21.552 14.552 22 14 22Z" fill="#2395EC"/>
<path d="M20 22H17C16.448 22 16 21.552 16 21V18C16 17.448 16.448 17 17 17H20C20.552 17 21 17.448 21 18V21C21 21.552 20.552 22 20 22Z" fill="#2395EC"/>
<path d="M26 22H23C22.448 22 22 21.552 22 21V18C22 17.448 22.448 17 23 17H26C26.552 17 27 17.448 27 18V21C27 21.552 26.552 22 26 22Z" fill="#2395EC"/>
<path d="M14 16H11C10.448 16 10 15.552 10 15V12C10 11.448 10.448 11 11 11H14C14.552 11 15 11.448 15 12V15C15 15.552 14.552 16 14 16Z" fill="#2395EC"/>
<path d="M20 16H17C16.448 16 16 15.552 16 15V12C16 11.448 16.448 11 17 11H20C20.552 11 21 11.448 21 12V15C21 15.552 20.552 16 20 16Z" fill="#2395EC"/>
<path d="M26 16H23C22.448 16 22 15.552 22 15V12C22 11.448 22.448 11 23 11H26C26.552 11 27 11.448 27 12V15C27 15.552 26.552 16 26 16Z" fill="#2395EC"/>
<path d="M26 10H23C22.448 10 22 9.552 22 9V6C22 5.448 22.448 5 23 5H26C26.552 5 27 5.448 27 6V9C27 9.552 26.552 10 26 10Z" fill="#2395EC"/>
<path d="M32 22H29C28.448 22 28 21.552 28 21V18C28 17.448 28.448 17 29 17H32C32.552 17 33 17.448 33 18V21C33 21.552 32.552 22 32 22Z" fill="#2395EC"/>
</g>
<defs>
<clipPath id="clip0_74325_18050">
<rect width="48" height="48" fill="white"/>
</clipPath>
</defs>
</svg>
