<svg xmlns="http://www.w3.org/2000/svg" width="173" height="173" fill="none" viewBox="0 0 173 173"><path fill="#FF8F00" d="M28.8334 133.354L83.7392 30.4047C84.8962 28.235 88.0246 28.2746 89.1239 30.4768L108.125 68.4791L28.8334 133.354Z"/><path fill="#FFA000" d="M28.8334 133.325L48.8221 10.0665C49.3447 6.84074 53.6769 6.14153 55.1906 9.03928L93.7084 82.867L28.8334 133.325Z"/><path fill="#FF6F00" d="M28.8622 133.304L29.583 132.738L92.7605 81.0506L74.9415 46.8975L28.8622 133.304Z"/><path fill="#FFC400" d="M28.8334 133.354L124.942 40.6802C126.957 38.7375 130.319 39.8836 130.73 42.6516L144.167 133.354L90.1042 164.865C87.9093 166.098 85.2314 166.098 83.0364 164.865L28.8334 133.354Z"/></svg>