<svg width="153" height="153" viewBox="0 0 153 153" fill="none" xmlns="http://www.w3.org/2000/svg">
<path d="M134.513 70.4438L82.5562 18.4875C80.9625 16.8938 78.7312 15.9375 76.5 15.9375C74.2688 15.9375 72.0375 16.8938 70.4438 18.4875L59.2875 29.6438L72.3563 42.7125C73.6313 42.075 74.9062 41.7563 76.5 41.7563C81.9188 41.7563 86.0625 45.9 86.0625 51.3188C86.0625 52.9125 85.7438 54.1875 85.1063 55.4625L97.8563 68.2125C99.1313 67.575 100.406 67.2563 102 67.2563C107.419 67.2563 111.562 71.4 111.562 76.8188C111.562 82.2375 107.419 86.3813 102 86.3813C96.5812 86.3813 92.4375 82.2375 92.4375 76.8188C92.4375 75.225 92.7562 73.95 93.3937 72.675L80.6437 59.925C80.325 59.925 80.0063 60.2437 79.6875 60.2437V93.3937C83.5125 94.6687 86.0625 98.175 86.0625 102.319C86.0625 107.737 81.9188 111.881 76.5 111.881C71.0812 111.881 66.9375 107.737 66.9375 102.319C66.9375 98.175 69.4875 94.6687 73.3125 93.3937V59.925C69.4875 58.65 66.9375 55.1437 66.9375 51C66.9375 49.4062 67.2562 48.1312 67.8937 46.8562L54.825 33.7875L18.4875 70.4438C16.8938 72.0375 15.9375 74.2688 15.9375 76.5C15.9375 78.7312 16.8938 80.9625 18.4875 82.5562L70.4438 134.513C72.0375 136.106 74.2688 137.062 76.5 137.062C78.7312 137.062 80.9625 136.106 82.5562 134.513L134.513 82.5562C136.106 80.9625 137.062 78.7312 137.062 76.5C137.062 74.2688 136.106 72.0375 134.513 70.4438Z" fill="#F4511E"/>
</svg>
