<svg width="24" height="24" viewBox="0 0 24 24" fill="none" xmlns="http://www.w3.org/2000/svg">
<path d="M10.9 2.10001C6.30001 2.60001 2.60001 6.30001 2.10001 10.8C1.60001 15.5 4.30001 19.7 8.40001 21.3C8.70001 21.4 9.00001 21.2 9.00001 20.8V19.2C9.00001 19.2 8.60001 19.3 8.10001 19.3C6.70001 19.3 6.10001 18.1 6.00001 17.4C5.90001 17 5.70001 16.7 5.40001 16.4C5.10001 16.3 5.00001 16.3 5.00001 16.2C5.00001 16 5.30001 16 5.40001 16C6.00001 16 6.50001 16.7 6.70001 17C7.20001 17.8 7.80001 18 8.10001 18C8.50001 18 8.80001 17.9 9.00001 17.8C9.10001 17.1 9.40001 16.4 10 16C7.70001 15.5 6.00001 14.2 6.00001 12C6.00001 10.9 6.50001 9.80001 7.20001 9.00001C7.10001 8.80001 7.00001 8.30001 7.00001 7.60001C7.00001 7.20001 7.00001 6.70001 7.20001 6.30001C7.20001 6.10001 7.40001 6.00001 7.50001 6.00001H7.60001C8.10001 6.10001 9.10001 6.40001 10 7.30001C10.6 7.10001 11.3 7.00001 12 7.00001C12.7 7.00001 13.4 7.10001 14 7.30001C14.9 6.40001 16 6.10001 16.5 6.00001H16.6C16.8 6.00001 16.9 6.10001 17 6.30001C17 6.70001 17 7.20001 17 7.60001C17 8.40001 16.9 8.80001 16.8 9.00001C17.5 9.80001 18 10.8 18 12C18 14.2 16.3 15.5 14 16C14.6 16.5 15 17.4 15 18.3V20.9C15 21.2 15.3 21.5 15.7 21.4C19.4 19.9 22 16.3 22 12.1C22 6.10001 16.9 1.40001 10.9 2.10001Z" fill="black"/>
</svg>
