<svg xmlns="http://www.w3.org/2000/svg" width="206" height="206" fill="none" viewBox="0 0 206 206"><path fill="#128379" d="M135.954 32.2001C134.619 32.0752 133.268 32.7825 132.635 34.0861C131.85 35.7083 132.467 37.6808 134.006 38.537C153.737 49.6095 167.098 70.9359 167.098 95.4435C167.098 122.925 150.267 146.431 126.474 155.946V128.788C130.601 127.462 133.716 123.572 133.716 118.918C133.716 115.062 131.739 111.73 128.687 109.928C131.101 86.5082 141.612 92.6761 141.612 85.2214V80.8837C141.612 69.6889 116.073 33.2259 104.132 32.3761C103.404 32.3182 102.672 32.3182 101.919 32.3761C89.945 33.258 64.4127 69.6953 64.4127 80.8837V85.2466C64.4127 92.7012 74.9687 86.5076 77.3506 109.953C74.2735 111.749 72.3213 115.08 72.3213 118.943C72.3213 123.597 75.3993 127.487 79.5258 128.813V155.971C55.7263 146.489 38.9016 122.983 38.9016 95.4686C38.9016 70.9933 52.2634 49.6668 71.9944 38.5621C73.5651 37.6802 74.1502 35.7335 73.3649 34.1112C72.5216 32.3731 70.4245 31.7003 68.7379 32.6401C46.947 44.8714 32.1875 68.4247 32.1875 95.4686C32.1875 129.253 55.1991 157.571 86.2021 165.225V134.584C88.4102 135.318 90.5994 135.943 92.8911 136.42V172.857C55.1738 167.855 25.9889 135.117 25.9889 95.4686C25.9889 85.8059 27.7378 76.5387 30.905 67.9961C31.5423 66.2902 30.7363 64.4042 29.0819 63.696C27.3373 62.93 25.3005 63.8041 24.631 65.6323C21.1998 74.9088 19.3125 84.9498 19.3125 95.4686C19.3125 141.156 54.9419 178.422 99.6052 180.25V137.275C101.582 137.391 103.955 137.423 106.395 137.275V180.212C151.058 178.416 186.688 141.156 186.688 95.4686C186.688 84.9498 184.8 74.9158 181.369 65.6072C180.7 63.8111 178.663 62.8923 176.918 63.6583C175.264 64.3665 174.451 66.2782 175.095 67.9584C178.262 76.5009 180.011 85.7808 180.011 95.4435C180.011 135.092 150.858 167.823 113.109 172.832V136.395C115.407 135.95 117.622 135.325 119.798 134.559V165.2C150.801 157.571 173.812 129.234 173.812 95.4435C173.812 68.3995 159.053 44.8398 137.262 32.615C136.848 32.38 136.399 32.2417 135.954 32.2001ZM82.6942 111.952C86.4988 111.952 89.5718 115.074 89.5718 118.93C89.5718 122.754 86.531 125.908 82.6942 125.908C78.8575 125.908 75.8041 122.754 75.8041 118.93C75.8041 115.106 78.8575 111.952 82.6942 111.952ZM123.306 111.965C127.085 111.965 130.196 115.055 130.196 118.943C130.196 122.799 127.117 125.921 123.306 125.921C119.527 125.921 116.428 122.831 116.428 118.943C116.428 115.087 119.501 111.965 123.306 111.965Z"/></svg>