<svg xmlns="http://www.w3.org/2000/svg" width="100" height="100" fill="none" viewBox="0 0 100 100"><path fill="#FFD600" d="M12.5 87.5V12.5H87.5V87.5H12.5Z"/><path fill="#000001" d="M61.5375 68.6396C62.9791 70.9813 64.5458 73.225 67.8646 73.225C70.6521 73.225 72.1146 71.8396 72.1146 69.9229C72.1146 67.6292 70.6021 66.8146 67.5354 65.4792L65.8541 64.7625C61.0021 62.7042 57.775 60.125 57.775 54.6771C57.775 49.6563 61.6187 45.8354 67.625 45.8354C71.9021 45.8354 74.975 47.3167 77.1916 51.1958L71.9541 54.5438C70.8021 52.4854 69.5562 51.675 67.625 51.675C65.6541 51.675 64.4062 52.9188 64.4062 54.5438C64.4062 56.5521 65.6562 57.3646 68.5417 58.6083L70.2229 59.325C75.9417 61.7604 79.1667 64.2479 79.1667 69.8396C79.1667 75.8646 74.4083 79.1667 68.0208 79.1667C61.7729 79.1667 58.225 76.0313 56.25 72.15L61.5375 68.6396ZM37.4 68.8104C38.4541 70.6979 40.0562 72.15 42.3604 72.15C44.5646 72.15 45.8333 71.2792 45.8333 67.8938V45.8333H52.7771V68.9604C52.7771 75.975 48.7083 79.1667 42.7666 79.1667C37.3979 79.1667 33.5229 75.5292 31.9437 72.15L37.4 68.8104Z"/></svg>