<svg xmlns="http://www.w3.org/2000/svg" width="143" height="143" fill="none" viewBox="0 0 143 143"><path fill="#fff" d="M72.4339 30.7731C72.4127 30.5528 72.4026 30.3324 72.4026 30.1115C72.4026 26.8778 74.5208 24.2471 77.1236 24.2471C79.7873 24.2471 81.8736 26.823 81.8736 30.1115C81.8736 30.8561 81.7616 31.5739 81.553 32.2369C82.3336 30.9963 82.7852 29.435 82.7852 27.7983C82.7852 23.8661 80.2716 20.6665 77.1825 20.6665C74.0927 20.6665 71.5798 23.8658 71.5798 27.7983C71.5798 28.765 71.7312 29.7113 72.0309 30.619C72.1613 30.6687 72.296 30.7204 72.4339 30.7731Z"/><path fill="#fff" d="M58.4865 24.5568C58.6551 24.5311 58.8096 24.5194 58.9632 24.5194C61.035 24.5194 62.8926 26.5529 63.3795 29.3543C63.4283 29.6615 63.4591 29.9676 63.4727 30.2695C63.6074 30.2011 63.7442 30.1369 63.8836 30.0774C63.952 29.5917 63.9852 29.1364 63.9852 28.6792C63.9852 25.0523 62.064 21.9881 59.7905 21.9881C57.8541 21.9881 56.2225 24.1208 55.7574 27.0015C56.287 25.6877 57.2536 24.7615 58.4865 24.5568Z"/><path fill="#fff" d="M97.5002 97.7142C98.0211 95.5055 99.0573 89.866 98.0764 83.0442C96.8369 74.4223 84.7051 47.5753 82.6173 44.5776C81.3996 44.7477 78.1637 46.6176 75.5394 48.1338C72.4962 49.892 69.3486 51.7108 67.2083 52.3286C66.7614 52.4551 66.2942 52.5177 65.8127 52.5177C62.6848 52.5177 59.2995 49.8733 57.1168 47.7903C56.7356 51.8323 54.5814 56.961 52.2506 59.597C50.7785 61.2853 49.4627 65.1421 48.1902 68.8724C47.0116 72.3265 45.793 75.8986 44.301 78.2545C41.2821 82.9584 39.5505 92.095 41.7472 97.291C42.8102 99.8097 46.6683 102.784 50.0721 105.408C54.235 108.617 57.8298 111.388 58.2264 114.183C58.6892 117.487 56.9319 119.319 55.1746 120.187L59.6324 125.288C60.3212 125.392 61.9799 125.593 64.5793 125.593C67.6197 125.593 70.9947 125.327 74.608 124.801C83.4793 123.487 89.6581 116.176 90.88 114.624C90.8865 112.568 90.9493 103.418 91.5492 100.557C91.7822 99.4553 92.6767 97.6114 96.0559 97.6114C96.5813 97.6105 97.0815 97.6566 97.5002 97.7142Z"/><path fill="#E69629" d="M58.7885 41.0791C58.9625 41.7556 60.5022 43.4858 62.8969 45.0569C63.2368 45.275 63.5558 45.492 63.8552 45.6953C65.1835 46.598 65.7742 46.9687 66.7291 46.8399C68.1351 46.6556 73.3147 43.5152 75.5267 42.174L76.0772 41.8405C76.9009 41.3389 77.5592 40.9962 78.0881 40.7208C79.1355 40.1759 79.2302 40.0879 79.2749 39.889C79.1562 39.581 78.1784 38.7562 76.3029 38.1116C75.7069 37.8982 74.8611 37.5603 73.8814 37.1692C71.7618 36.323 68.8585 35.165 67.6818 34.9567C67.6315 34.9472 67.5843 34.9441 67.5313 34.9441C66.5297 34.9441 64.5062 36.2006 62.4953 38.0705C61.5041 38.9654 59.5691 40.4756 58.7885 41.0791Z"/><path fill="#E69629" d="M41.0983 110.47C40.2271 109.012 39.4741 107.752 39.0678 107.123C37.4652 104.629 34.6839 101.843 33.3584 101.843C33.2422 101.843 33.181 101.87 33.1414 101.893C32.4339 102.296 31.8393 103.524 31.2636 104.71C30.4685 106.351 29.5669 108.211 27.902 109.219C26.6703 109.967 24.7873 110.375 22.9674 110.771C21.6723 111.052 18.6403 111.71 18.4978 112.324C18.3015 113.153 18.4841 114.009 18.716 115.093C18.9888 116.371 19.3293 117.962 19.0394 119.915C18.8349 121.14 18.4632 122.31 18.1026 123.442C17.6018 125.017 17.034 126.802 17.5236 127.351C18.1275 127.884 21.7709 128.473 24.4309 128.904C27.7747 129.445 31.2321 130.005 33.3494 130.892L33.9105 131.129C37.7031 132.722 44.7623 135.689 48.3284 135.689C48.653 135.689 48.9295 135.663 49.1526 135.613C49.7676 135.199 52.3732 133.327 52.8628 131.026C53.5314 128.06 50.8133 124.6 49.1345 122.802C47.271 120.801 43.7035 114.83 41.0983 110.47Z"/><path fill="#E69629" d="M121.706 117.576L121.272 117.348C118.287 115.77 116.717 111.487 116.925 108.259C116.964 107.664 116.89 107.203 116.77 106.85C116.218 107.757 115.431 108.902 114.495 109.837C112.906 111.427 109.025 113.142 105.528 113.142C104.224 113.142 103.035 112.912 101.995 112.459C98.5041 110.936 98.0282 106.571 98.0192 104.382C97.9675 104.397 97.9203 104.413 97.8782 104.433C97.6648 105.188 97.8715 107.731 98.0108 109.442C98.0854 110.358 98.1622 111.305 98.2077 112.174C98.4055 116.003 97.1861 122.496 96.1278 127.27C95.1232 131.943 96.9928 135.22 99.2627 135.927C99.4665 135.992 99.6958 136.024 99.9478 136.024C102.039 136.024 105.502 133.859 108.564 130.637C110.739 128.35 115.58 125.878 119.852 123.697C122.26 122.467 124.75 121.195 125.457 120.549C125.615 120.402 125.638 120.32 125.639 120.32C125.594 119.617 122.77 118.134 121.706 117.576Z"/><path fill="#000" d="M128.775 114.817C124.582 113.1 122.788 110.82 122.961 107.419C123.14 103.45 120.888 100.543 119.819 99.3944C120.465 96.9263 122.353 88.3885 119.821 80.9723C117.1 73.0347 108.791 60.9119 100.219 48.9952C96.7095 44.1014 96.5436 38.7813 96.3518 32.6215C96.168 26.7462 95.9608 20.0867 92.6843 12.6834C89.1219 4.62235 81.9736 0 73.0716 0C67.7759 0 62.34 1.65511 58.157 4.54051C49.591 10.4524 50.7232 23.3416 51.4726 31.8699C51.5754 33.0379 51.6717 34.1411 51.7281 35.0829C52.2269 43.4361 51.7731 47.8389 51.1796 49.177C50.7956 50.0515 48.9053 52.54 46.9047 55.1752C44.8357 57.9005 42.4899 60.989 40.5672 63.8671C38.2731 67.3307 36.421 72.6244 34.6302 77.7437C33.3197 81.4893 32.0819 85.0277 30.877 87.1434C28.5932 91.211 29.1616 95.0041 29.6358 96.7573C28.7711 97.3578 27.5221 98.5409 26.4678 100.77C25.1934 103.489 22.6076 104.95 17.2309 105.984C14.76 106.489 13.0563 107.528 12.1653 109.072C10.8688 111.318 11.5752 114.14 12.2192 116.07C13.1711 118.905 12.5778 120.7 11.4995 123.959C11.2509 124.71 10.9691 125.562 10.6837 126.501C10.234 127.983 10.3963 129.33 11.1646 130.506C13.1951 133.61 19.1206 134.705 25.2204 135.426C28.8625 135.858 32.8486 137.314 36.704 138.723C40.4814 140.104 44.3877 141.531 47.9381 141.965C48.4777 142.033 49.0123 142.066 49.5276 142.066C54.8884 142.066 57.3104 138.509 58.0785 137.048C60.0039 136.655 66.6453 135.397 73.4903 135.228C80.3244 135.033 86.9364 136.383 88.8097 136.802C89.3984 137.929 90.951 140.503 93.4256 141.83C94.7858 142.574 96.6785 143 98.6171 143C98.6177 143 98.6171 143 98.6177 143C100.688 143 104.627 142.51 107.745 139.23C110.854 135.936 118.623 131.728 124.296 128.657C125.562 127.972 126.746 127.33 127.785 126.752C130.971 124.985 132.71 122.461 132.555 119.827C132.426 117.638 130.977 115.718 128.775 114.817ZM77.182 20.6665C80.2713 20.6665 82.7847 23.8658 82.7847 27.7983C82.7847 29.4347 82.3331 30.996 81.5524 32.2369C81.7605 31.5738 81.8731 30.856 81.8731 30.1114C81.8731 26.823 79.7867 24.2471 77.1231 24.2471C74.5201 24.2471 72.4022 26.8778 72.4022 30.1114C72.4022 30.3324 72.413 30.5527 72.4334 30.7731C72.2955 30.7206 72.1611 30.6686 72.0299 30.6189C71.7302 29.7112 71.5788 28.765 71.5788 27.7983C71.5791 23.8661 74.0922 20.6665 77.182 20.6665ZM67.6815 34.9578C68.8584 35.1656 71.7609 36.3241 73.881 37.1704C74.8608 37.5614 75.7073 37.8993 76.3025 38.1127C78.178 38.7573 79.1561 39.5821 79.2745 39.8901C79.2301 40.0893 79.1351 40.177 78.0878 40.7219C77.5588 40.997 76.9008 41.3394 76.0768 41.8416L75.5264 42.1751C73.3143 43.5165 68.1348 46.6572 66.7288 46.841C65.7736 46.9695 65.1829 46.5986 63.8549 45.6964C63.5552 45.4925 63.2365 45.2758 62.8966 45.058C60.5022 43.4864 58.9619 41.7567 58.7882 41.0802C59.5688 40.4769 61.5038 38.9665 62.4944 38.0719C64.5053 36.202 66.5288 34.9455 67.5304 34.9455C67.5835 34.9447 67.6315 34.9483 67.6815 34.9578ZM59.7897 21.9873C62.0637 21.9873 63.9845 25.0512 63.9845 28.6784C63.9845 29.1359 63.9515 29.5908 63.8828 30.0765C63.7434 30.136 63.6066 30.2008 63.472 30.2687C63.4583 29.9662 63.427 29.6607 63.3787 29.3534C62.8921 26.5521 61.0343 24.5185 58.9624 24.5185C58.8091 24.5185 58.6549 24.5303 58.4857 24.556C57.2532 24.7612 56.2862 25.6868 55.7564 27.0001C56.222 24.1197 57.8539 21.9873 59.7897 21.9873ZM52.8626 131.025C52.373 133.327 49.7672 135.199 49.1525 135.613C48.9293 135.663 48.6531 135.689 48.3283 135.689C44.7622 135.689 37.703 132.722 33.9105 131.129L33.3493 130.892C31.2314 130.005 27.7743 129.446 24.4309 128.904C21.7706 128.473 18.1277 127.884 17.5236 127.351C17.034 126.802 17.6018 125.016 18.1026 123.442C18.4632 122.31 18.8355 121.14 19.0393 119.915C19.3287 117.962 18.9888 116.371 18.7159 115.093C18.4844 114.009 18.3015 113.153 18.4978 112.324C18.6402 111.71 21.6723 111.052 22.9674 110.771C24.7878 110.375 26.6708 109.967 27.902 109.219C29.5668 108.211 30.4684 106.351 31.2636 104.71C31.8392 103.524 32.4338 102.296 33.1413 101.893C33.1812 101.869 33.2421 101.843 33.3583 101.843C34.6838 101.843 37.465 104.629 39.0676 107.123C39.474 107.751 40.227 109.011 41.0981 110.47C43.7037 114.83 47.2711 120.801 49.1343 122.802C50.8132 124.6 53.531 128.059 52.8626 131.025ZM91.5495 100.557C90.9505 103.418 90.8871 112.567 90.8804 114.624C89.6584 116.176 83.4796 123.486 74.6083 124.801C70.9948 125.326 67.6206 125.592 64.5796 125.592C61.9802 125.592 60.3215 125.392 59.6328 125.288L55.1749 120.187C56.9322 119.319 58.6896 117.487 58.2268 114.183C57.8302 111.388 54.2354 108.617 50.0725 105.408C46.6687 102.784 42.8105 99.81 41.7475 97.2907C39.5508 92.0953 41.2825 82.9587 44.3014 78.2542C45.7934 75.8986 47.0119 72.3262 48.1906 68.8721C49.463 65.1418 50.7791 61.2848 52.251 59.5967C54.5817 56.9607 56.7356 51.832 57.1171 47.79C59.2996 49.873 62.6852 52.5174 65.813 52.5174C66.2945 52.5174 66.7621 52.4545 67.2086 52.3283C69.3486 51.7102 72.496 49.8917 75.5398 48.1336C78.164 46.6173 81.3999 44.7474 82.6177 44.5773C84.7054 47.5752 96.8372 74.4223 98.0767 83.0439C99.0576 89.8657 98.0214 95.5049 97.5005 97.7139C97.0813 97.6563 96.5816 97.6103 96.0566 97.6103C92.6771 97.6105 91.7825 99.455 91.5495 100.557ZM125.458 120.55C124.751 121.197 122.26 122.468 119.852 123.698C115.58 125.879 110.739 128.351 108.564 130.638C105.503 133.86 102.04 136.025 99.9485 136.025C99.6969 136.025 99.4676 135.993 99.2634 135.928C96.9933 135.221 95.124 131.944 96.1286 127.271C97.1869 122.497 98.4057 116.004 98.2085 112.175C98.163 111.306 98.0862 110.359 98.0116 109.443C97.8723 107.732 97.6656 105.189 97.879 104.434C97.9211 104.414 97.9681 104.398 98.02 104.383C98.0289 106.572 98.5043 110.937 101.995 112.46C103.036 112.913 104.225 113.143 105.529 113.143C109.026 113.143 112.906 111.428 114.496 109.838C115.432 108.903 116.219 107.758 116.77 106.851C116.891 107.204 116.965 107.665 116.926 108.26C116.718 111.488 118.287 115.77 121.272 117.348L121.707 117.577C122.77 118.135 125.595 119.618 125.64 120.321C125.639 120.321 125.616 120.404 125.458 120.55Z"/></svg>