<svg width="157" height="157" viewBox="0 0 157 157" fill="none" xmlns="http://www.w3.org/2000/svg">
<path d="M0.00654167 114.613H6.28654V91.4394L15.0099 111.251C16.086 113.72 17.5578 114.594 20.446 114.594C23.3341 114.594 24.7471 113.72 25.8232 111.251L34.5465 91.9463V114.613H40.8265V90.8735C40.8265 88.5937 39.9205 87.4882 38.0496 86.9191C33.5784 85.5126 30.5758 86.7261 29.2184 89.7712L20.2726 109.92L11.6082 89.7712C10.3064 86.7294 7.25144 85.5126 2.77694 86.9191C0.906021 87.4882 0 88.5905 0 90.8702V114.61H0.00654167V114.613Z" fill="#00796B"/>
<path d="M43.9633 95.7733H50.2433V109.037C50.1942 109.691 50.4526 111.428 53.4814 111.473C55.0252 111.499 62.7084 111.473 62.8033 111.473V95.7733H69.0833C69.1094 95.7733 69.0833 115.294 69.0833 115.375C69.116 120.19 63.1042 120.812 60.3403 120.893H43.9665V117.753C43.9992 117.753 59.624 117.757 59.6698 117.753C63.2285 117.377 62.8065 115.418 62.8065 114.823V114.613H52.9548C47.4925 114.564 44.009 112.157 43.9698 109.413C43.9633 109.158 44.0875 95.8911 43.9633 95.7733Z" fill="#00796B"/>
<path d="M72.2233 114.613H87.9462C90.0068 114.613 92.0086 114.182 93.5982 113.436C96.2476 112.219 97.34 110.574 97.34 108.412V103.937C97.34 99.1095 91.3544 98.9133 87.92 98.9133H81.64C79.1706 98.9133 78.7944 97.4218 78.5 95.7733V92.6333C78.7944 91.3773 79.3439 89.6895 81.519 89.4933C84.0474 89.4933 97.3368 89.4933 97.3368 89.4933V86.3533H82.4022C79.9327 86.3533 72.2168 86.6476 72.2168 92.6333V96.5157C72.2168 99.2632 74.6307 101.501 79.8705 102.05C80.4593 102.089 81.048 102.129 81.6335 102.129C81.6335 102.129 87.7369 102.011 87.9135 102.05C91.446 102.05 91.0535 104.797 91.0535 105.19V108.33C91.0535 108.762 90.9554 111.47 87.8775 111.47C87.642 111.47 72.2135 111.47 72.2135 111.47V114.613H72.2233Z" fill="#F57F17"/>
<path d="M131.88 108.199C131.88 111.99 134.022 114.116 139.704 114.541C140.234 114.577 140.767 114.61 141.3 114.61H157V111.47H142.494C139.252 111.47 138.16 110.109 138.16 108.163V86.35H131.88V108.199V108.199Z" fill="#F57F17"/>
<path d="M100.428 108.333V92.6333C100.428 89.297 102.063 86.9944 106.695 86.3533H108.893H120.167H121.884C126.516 86.9944 128.688 89.2938 128.688 92.6333V108.274C128.688 110.979 127.984 112.432 125.692 113.374L130.559 117.75H123.494L119.994 114.61H115.882L108.896 114.649C107.885 114.649 106.819 114.509 105.648 114.188C102.135 113.23 100.428 111.385 100.428 108.333ZM106.708 108.333C107.028 109.861 108.255 111.473 110.436 111.473H116.533L113.04 108.333H120.154L121.852 109.91C121.852 109.91 122.46 109.413 122.46 108.333C122.46 107.254 122.408 92.6333 122.408 92.6333C122.087 91.2137 120.648 89.4933 118.522 89.4933H110.44C107.99 89.4933 106.711 91.2857 106.711 92.9538L106.708 108.333Z" fill="#F57F17"/>
<path d="M151.109 83.0432C147.737 82.9516 145.163 83.2656 142.962 84.1912C142.337 84.4562 141.339 84.4627 141.235 85.2477C141.578 85.6075 141.63 86.1472 141.905 86.5888C142.428 87.4392 143.318 88.5807 144.11 89.176C144.976 89.8302 145.869 90.5301 146.795 91.096C148.444 92.1001 150.285 92.6758 151.875 93.6832C152.81 94.2752 153.739 95.0275 154.655 95.6948C155.106 96.0284 155.407 96.5419 155.996 96.7512C155.996 96.7185 155.996 96.6891 155.996 96.6564C155.688 96.2639 155.607 95.7242 155.325 95.3121C154.91 94.8967 154.495 94.4813 154.079 94.0659C152.862 92.4501 151.312 91.0273 149.67 89.8498C148.358 88.9078 145.425 87.6354 144.875 86.1112C144.842 86.0785 144.813 86.0491 144.777 86.0131C145.706 85.9084 146.795 85.5715 147.652 85.3426C149.094 84.9566 150.38 85.058 151.868 84.6721C152.539 84.4791 153.209 84.2894 153.88 84.0964C153.88 83.9688 153.88 83.8413 153.88 83.7137C153.127 82.9418 152.588 81.9213 151.77 81.2213C149.621 79.3929 147.279 77.5678 144.869 76.0436C143.531 75.1997 141.876 74.6502 140.459 73.9339C139.982 73.6919 139.145 73.5676 138.831 73.1685C138.085 72.22 137.682 71.0131 137.107 69.9108C135.903 67.595 134.719 65.0634 133.656 62.6266C132.927 60.9651 132.452 59.3231 131.546 57.8316C127.193 50.675 122.506 46.3542 115.251 42.1087C113.707 41.206 111.846 40.8494 109.88 40.3817C108.824 40.3196 107.771 40.2541 106.714 40.1887C106.07 39.9172 105.403 39.1322 104.794 38.7496C102.39 37.2286 96.2214 33.9251 94.4421 38.2687C93.3169 41.0097 96.1233 43.6852 97.1274 45.0754C97.8307 46.0501 98.7334 47.1425 99.2371 48.2415C99.5675 48.9611 99.6264 49.684 99.9077 50.4461C100.604 52.3235 101.707 54.4626 102.609 56.1995C103.064 57.0793 103.568 58.0017 104.143 58.7867C104.497 59.2675 105.102 59.4801 105.2 60.2258C104.608 61.0534 104.575 62.3388 104.242 63.392C102.743 68.1184 103.309 73.9895 105.488 77.4828C106.155 78.5556 107.731 80.8583 109.897 79.9751C111.791 79.2032 111.369 76.8122 111.908 74.7026C112.029 74.225 111.954 73.875 112.196 73.5545C112.196 73.5872 112.196 73.6166 112.196 73.6526C112.772 74.8007 113.344 75.9553 113.923 77.1033C115.202 79.1607 117.469 81.3096 119.385 82.7619C120.38 83.5142 121.165 84.816 122.454 85.2543C122.454 85.2216 122.454 85.1921 122.454 85.1561C122.421 85.1561 122.391 85.1561 122.355 85.1561C122.107 84.7669 121.714 84.6066 121.397 84.2926C120.648 83.5567 119.811 82.6441 119.192 81.8003C117.446 79.4289 115.902 76.8319 114.496 74.1302C113.825 72.8382 113.24 71.4186 112.674 70.1038C112.455 69.5968 112.458 68.8314 112.003 68.5697C111.382 69.5314 110.472 70.3098 109.992 71.4448C109.226 73.2601 109.125 75.4777 108.844 77.7706C108.673 77.8295 108.749 77.7902 108.651 77.8655C107.316 77.5416 106.845 76.1712 106.348 74.9904C105.092 72.0074 104.86 67.2058 105.965 63.7747C106.25 62.885 107.542 60.0885 107.022 59.2675C106.773 58.4465 105.949 57.9722 105.491 57.3475C104.919 56.5756 104.353 55.5551 103.957 54.6622C102.93 52.3366 101.955 49.6316 100.873 47.2799C100.356 46.1547 99.4824 45.0197 98.7629 44.0221C97.968 42.9166 97.0751 42.1022 96.4602 40.7644C96.241 40.2901 95.9434 39.528 96.2672 39.0374C96.3719 38.707 96.5158 38.5697 96.8429 38.4617C97.3989 38.03 98.946 38.6024 99.5282 38.8444C101.066 39.4822 102.348 40.0906 103.649 40.9541C104.274 41.3695 104.905 42.1709 105.661 42.3933C105.949 42.3933 106.237 42.3933 106.525 42.3933C107.875 42.704 109.387 42.4914 110.646 42.8741C112.876 43.5511 114.872 44.6044 116.684 45.7491C122.211 49.2391 126.728 54.2042 129.819 60.131C130.317 61.0861 130.532 61.9954 130.967 63.0061C131.851 65.0471 132.966 67.1469 133.843 69.1421C134.719 71.1341 135.576 73.1424 136.816 74.8007C137.47 75.6707 139.988 76.1385 141.13 76.6225C141.931 76.9627 143.246 77.3127 144.005 77.7706C145.457 78.6472 146.864 79.6906 148.221 80.6457C148.915 81.1265 151.005 82.1764 151.109 83.0432Z" fill="#00796B"/>
<path d="M108.258 46.5211C107.555 46.508 107.058 46.5963 106.531 46.714C106.531 46.7467 106.531 46.7762 106.531 46.8122C106.564 46.8122 106.593 46.8122 106.629 46.8122C106.966 47.499 107.555 47.9471 107.97 48.5392C108.291 49.2097 108.608 49.8802 108.929 50.5507C108.961 50.518 108.991 50.4886 109.023 50.4559C109.615 50.0372 109.89 49.37 109.887 48.3462C109.648 48.0943 109.612 47.7803 109.406 47.4827C109.131 47.0804 108.601 46.8547 108.258 46.5211Z" fill="#00796B"/>
</svg>
