<svg xmlns="http://www.w3.org/2000/svg" width="138" height="138" fill="none" viewBox="0 0 138 138"><path fill="#03A9F4" d="M17.25 28.75C17.25 22.3991 22.3991 17.25 28.75 17.25H109.25C115.601 17.25 120.75 22.3991 120.75 28.75V109.25C120.75 115.601 115.601 120.75 109.25 120.75H28.75C22.3991 120.75 17.25 115.601 17.25 109.25V28.75Z"/><path fill="#020F16" d="M57.546 55.1252H51.7903V67.873H57.4627C59.0353 67.873 60.2514 67.3584 61.1139 66.3291C61.9764 65.2999 62.4048 63.802 62.4048 61.8355C62.4048 59.7942 61.9649 58.1727 61.0852 56.9652C60.2054 55.7577 59.0238 55.1454 57.546 55.1252Z"/><path fill="#020F16" d="M25.875 25.875V112.125H112.125V25.875H25.875ZM67.1744 71.2684C64.7996 73.5914 61.5049 74.75 57.293 74.75H51.7902V89.125H43.5361V48.2454H57.4626C61.5049 48.2454 64.7306 49.5018 67.1341 52.0088C69.5376 54.5158 70.7423 57.7731 70.7423 61.778C70.7423 65.7829 69.552 68.9454 67.1744 71.2684ZM93.9607 87.216C91.9224 88.8634 89.2429 89.6856 85.9309 89.6856C83.7027 89.6856 81.7362 89.2515 80.0342 88.3804C78.3322 87.5092 76.9954 86.296 76.0322 84.7435C75.0691 83.191 74.5861 81.5149 74.5861 79.718H82.1387C82.179 81.1009 82.4981 82.1416 83.1076 82.8345C83.7171 83.5274 84.7119 83.8724 86.0976 83.8724C88.2309 83.8724 89.2975 82.9092 89.2975 80.9801C89.2975 80.3074 88.9755 79.6835 88.3286 79.1142C87.6817 78.545 86.25 77.7745 84.0219 76.7999C80.7473 75.4716 78.4961 74.0974 77.2685 72.6714C76.0409 71.2454 75.4285 69.4801 75.4285 67.3641C75.4285 64.7047 76.3887 62.5111 78.3064 60.7804C80.224 59.0496 82.7684 58.1843 85.928 58.1843C89.2573 58.1843 91.9253 59.0467 93.9291 60.766C95.933 62.4852 96.9335 64.7996 96.9335 67.7005H88.987C88.987 65.2309 87.9606 63.9946 85.8993 63.9946C85.0569 63.9946 84.3669 64.2562 83.8206 64.7795C83.2744 65.3027 83.007 66.0359 83.007 66.9703C83.007 67.643 83.306 68.2381 83.9069 68.7527C84.5077 69.2674 85.9165 70.0034 88.1475 70.9579C91.3876 72.1567 93.6733 73.4907 95.013 74.9599C96.3528 76.429 97.0197 78.3351 97.0197 80.6725C97.0197 83.3894 95.9991 85.5686 93.9607 87.216Z"/></svg>