<svg xmlns="http://www.w3.org/2000/svg" width="433" height="446" fill="none" viewBox="0 0 433 446"><g clip-path="url(#clip0_74325_18032)"><path fill="#000" d="M323.205 324.227C326.038 300.626 325.189 297.165 342.768 300.988L347.231 301.38C360.748 301.995 378.43 299.206 388.818 294.38C411.18 284.004 424.44 266.68 402.39 271.232C352.093 281.608 348.635 264.577 348.635 264.577C401.746 185.774 423.948 85.7409 404.784 61.2549C352.514 -5.53407 262.036 26.0489 260.522 26.8689L260.04 26.9579C250.102 24.8959 238.98 23.6639 226.486 23.4619C203.725 23.0879 186.454 29.4289 173.353 39.3659C173.353 39.3659 11.9449 -27.1321 19.4539 122.994C21.0509 154.93 65.2309 364.649 117.924 301.304C137.183 278.141 155.795 258.556 155.795 258.556C165.037 264.696 176.102 267.828 187.707 266.703L188.604 265.938C188.323 268.814 188.447 271.627 188.963 274.957C175.391 290.124 179.379 292.787 152.24 298.373C124.783 304.032 140.914 314.107 151.443 316.74C164.211 319.933 193.748 324.456 213.711 296.516L212.916 299.704C218.241 303.964 217.881 330.323 218.636 349.156C219.392 367.99 220.653 385.565 224.492 395.927C228.331 406.287 232.861 432.977 268.528 425.333C298.337 418.945 321.128 409.751 323.205 324.226"/><path stroke="#000" stroke-width="37.395" d="M323.205 324.227C326.038 300.626 325.189 297.165 342.768 300.988L347.231 301.38C360.748 301.995 378.43 299.206 388.818 294.38C411.18 284.004 424.44 266.68 402.39 271.232C352.093 281.608 348.635 264.577 348.635 264.577C401.746 185.774 423.948 85.7409 404.784 61.2549C352.514 -5.53407 262.036 26.0489 260.522 26.8689L260.04 26.9579C250.102 24.8959 238.98 23.6639 226.486 23.4619C203.725 23.0879 186.454 29.4289 173.353 39.3659C173.353 39.3659 11.9449 -27.1321 19.4539 122.994C21.0509 154.93 65.2309 364.649 117.924 301.304C137.183 278.141 155.795 258.556 155.795 258.556C165.037 264.696 176.102 267.828 187.707 266.703L188.604 265.938C188.323 268.814 188.447 271.627 188.963 274.957C175.391 290.124 179.379 292.787 152.24 298.373C124.783 304.032 140.914 314.107 151.443 316.74C164.211 319.933 193.748 324.456 213.711 296.516L212.916 299.704C218.241 303.964 217.881 330.323 218.636 349.156C219.392 367.99 220.653 385.565 224.492 395.927C228.331 406.287 232.861 432.977 268.528 425.333C298.337 418.945 321.128 409.751 323.205 324.226"/><path fill="#336791" d="M402.395 271.23C352.093 281.606 348.635 264.575 348.635 264.575C401.746 185.767 423.948 85.7319 404.788 61.2489C352.518 -5.5361 262.036 26.0489 260.526 26.8689L260.04 26.9559C250.102 24.8929 238.98 23.6639 226.48 23.4599C203.719 23.0869 186.454 29.4269 173.353 39.3619C173.353 39.3619 11.9419 -27.1331 19.4489 122.992C21.0459 154.93 65.2249 364.649 117.92 301.304C137.18 278.141 155.789 258.556 155.789 258.556C165.032 264.696 176.097 267.828 187.697 266.703L188.598 265.938C188.318 268.814 188.446 271.627 188.959 274.957C175.384 290.124 179.373 292.787 152.236 298.373C124.777 304.032 140.908 314.107 151.44 316.74C164.208 319.933 193.747 324.456 213.706 296.516L212.91 299.704C218.229 303.964 221.964 327.415 221.338 348.673C220.712 369.932 220.294 384.527 224.485 395.927C228.676 407.327 232.853 432.977 268.527 425.333C298.336 418.945 313.783 402.391 315.932 374.778C317.457 355.147 320.908 358.049 321.126 340.498L323.894 332.189C327.086 305.578 324.401 296.993 342.766 300.986L347.229 301.378C360.746 301.993 378.437 299.204 388.82 294.378C411.178 284.002 424.438 266.678 402.393 271.23H402.395Z"/><path stroke="#fff" stroke-linecap="round" stroke-linejoin="round" stroke-width="12.465" d="M215.866 286.484C214.481 336 216.214 385.861 221.059 397.979C225.907 410.097 236.282 433.667 271.959 426.024C301.765 419.634 312.61 407.268 317.316 379.973C320.782 359.891 327.464 304.119 328.321 292.692"/><path stroke="#fff" stroke-linecap="round" stroke-linejoin="round" stroke-width="12.465" d="M173.104 38.2559C173.104 38.2559 11.5829 -27.7601 19.0919 122.365C20.6889 154.303 64.8709 364.029 117.565 300.681C136.821 277.515 154.236 259.346 154.236 259.346"/><path stroke="#fff" stroke-linecap="round" stroke-linejoin="round" stroke-width="12.465" d="M260.349 26.207C254.758 27.96 350.197 -8.68204 404.436 60.624C423.595 85.108 401.393 185.143 348.283 263.953"/><path stroke="#fff" stroke-linecap="round" stroke-linejoin="bevel" stroke-width="12.465" d="M348.282 263.953C348.282 263.953 351.743 280.989 402.046 270.606C424.086 266.054 410.822 283.38 388.469 293.761C370.124 302.275 328.995 304.457 328.323 292.692C326.594 262.337 349.97 271.559 348.283 263.953C346.758 257.103 336.304 250.38 329.389 233.615C323.352 218.982 246.593 106.766 350.676 123.432C354.489 122.643 323.53 24.43 226.123 22.833C128.738 21.236 131.933 142.595 131.933 142.595"/><path stroke="#fff" stroke-linecap="round" stroke-linejoin="round" stroke-width="12.465" d="M188.604 274.334C175.027 289.5 179.02 292.163 151.881 297.751C124.422 303.411 140.555 313.484 151.084 316.116C163.852 319.311 193.391 323.834 213.35 295.887C219.428 287.378 213.314 273.801 204.965 270.34C200.931 268.669 195.537 266.575 188.604 274.334V274.334Z"/><path stroke="#fff" stroke-linecap="round" stroke-linejoin="round" stroke-width="12.465" d="M187.715 274.069C186.347 265.152 190.645 254.541 195.251 242.127C202.173 223.501 218.144 204.872 205.368 145.788C195.845 101.759 131.972 136.625 131.932 142.595C131.893 148.563 134.821 172.855 130.865 201.143C125.703 238.056 154.353 269.275 187.344 266.081"/><path fill="#fff" stroke="#fff" stroke-width="4.155" d="M172.517 141.7C172.229 143.739 176.25 149.18 181.493 149.907C186.727 150.637 191.207 146.385 191.491 144.348C191.775 142.309 187.759 140.063 182.514 139.333C177.277 138.602 172.795 139.666 172.518 141.7H172.517Z"/><path fill="#fff" stroke="#fff" stroke-width="2.078" d="M331.941 137.543C332.225 139.582 328.209 145.023 322.965 145.75C317.727 146.48 313.247 142.228 312.96 140.191C312.683 138.152 316.7 135.906 321.939 135.176C327.178 134.446 331.657 135.509 331.941 137.544V137.543Z"/><path stroke="#fff" stroke-linecap="round" stroke-linejoin="round" stroke-width="12.465" d="M350.676 123.432C351.539 139.426 347.231 150.32 346.688 167.346C345.884 192.094 358.487 220.42 339.497 248.781"/></g><defs><clipPath id="clip0_74325_18032"><rect width="432.071" height="445.383" fill="#fff"/></clipPath></defs></svg>