<svg xmlns="http://www.w3.org/2000/svg" width="160" height="160" fill="none" viewBox="0 0 160 160"><g clip-path="url(#clip0_74326_16965)"><path fill="#0277BD" d="M66.1567 139.853C47.3934 139.847 28.6267 139.933 9.86336 139.81C0.34669 139.747 -1.38331 137.477 0.760024 128.06C8.02002 96.1267 15.5167 64.25 22.6167 32.28C24.52 23.7067 28.6267 19.9167 37.7067 20C75.2334 20.3533 112.763 20.1133 150.293 20.1533C159.707 20.1633 161.287 22.2 159.173 31.8567C152.313 63.21 145.41 94.5533 138.387 125.867C135.757 137.587 132.73 139.823 120.543 139.85C102.413 139.887 84.2834 139.86 66.1567 139.853Z"/><path fill="#FAFAFA" d="M83.5233 79.74C81.4966 77.45 79.81 75.5167 78.42 73.9667C70.32 64.8734 62.9 56.4 54.8766 47.7367C51.2033 43.7734 50.0333 39.9234 54.4433 36.01C58.8 32.1434 63.0833 32.4834 67.08 36.9334C78.2133 49.3234 89.3333 61.7267 100.65 73.9467C104.877 78.51 103.89 81.6134 99.2366 84.9967C81.3733 97.98 63.6133 111.107 45.87 124.257C41.8833 127.213 38.08 127.953 34.8566 123.587C31.3033 118.77 34.59 115.903 38.2766 113.207C51.46 103.563 64.62 93.88 77.7233 84.1234C79.55 82.7667 81.9833 80.89 83.5233 79.74ZM72.5 123.333C68.75 123.333 66.6666 120 66.6666 116.667C66.6666 113.333 68.75 110 72.5 110C86.58 110 92.8733 110 104.167 110C107.917 110 110 113.333 110 116.667C110 120 107.917 123.333 104.167 123.333C97.0833 123.333 83.3333 123.333 72.5 123.333Z"/></g><defs><clipPath id="clip0_74326_16965"><rect width="160" height="160" fill="#fff"/></clipPath></defs></svg>