<svg xmlns="http://www.w3.org/2000/svg" width="132" height="132" fill="none" viewBox="0 0 132 132"><path fill="#1976D2" d="M115.5 16.5H16.5V115.5H115.5V16.5Z"/><path fill="#fff" d="M75.5975 60.5H39.1243V69.476H52.206V110H62.5708V69.476H75.5975V60.5Z"/><path fill="#fff" d="M107.784 71.731C107.784 71.731 102.869 68.453 97.3143 68.453C91.7593 68.453 89.76 71.093 89.76 73.9145C89.76 81.1965 110.058 80.4678 110.058 95.1225C110.058 117.697 79.1093 107.685 79.1093 107.685V96.855C79.1093 96.855 85.0273 101.315 92.125 101.315C99.2228 101.315 98.9533 96.6735 98.9533 96.0355C98.9533 89.3008 78.837 89.3008 78.837 74.371C78.837 54.0733 108.147 62.0813 108.147 62.0813L107.784 71.731Z"/></svg>