<svg width="151" height="151" viewBox="0 0 151 151" fill="none" xmlns="http://www.w3.org/2000/svg">
<path d="M75.6479 15.7291C70.7561 15.7448 67.3649 16.1758 63.2659 16.8836C51.1607 18.9913 48.9555 23.4175 48.9555 31.5747V44.0416H77.268V50.3333H47.8796H34.1952C25.9028 50.3333 18.6454 54.2404 16.3458 63.6055C13.7473 74.3549 13.6309 81.0869 16.3458 92.3113C18.4063 100.682 22.9457 106.958 31.2413 106.958H42.6669V90.9019C42.6669 81.5714 51.1167 72.3541 60.7995 72.3541H83.5628C91.4997 72.3541 99.292 66.4966 99.292 58.5848V31.5747C99.292 23.902 93.7584 18.164 86.0228 16.8773C86.2147 16.8585 80.4987 15.7102 75.6479 15.7291ZM59.969 28.3124C62.5518 28.3124 64.6878 30.4422 64.6878 33.0375C64.6878 35.658 62.5518 37.7499 59.969 37.7499C57.336 37.7499 55.2503 35.6611 55.2503 33.0375C55.2503 30.4516 57.336 28.3124 59.969 28.3124Z" fill="#0277BD"/>
<path d="M72.5995 135.271C77.4913 135.255 80.8825 134.824 84.9815 134.116C97.0867 132.009 99.2919 127.582 99.2919 119.425V106.958H70.9794V100.667H100.371H114.055C122.348 100.667 129.605 96.7595 131.905 87.3944C134.503 76.645 134.62 69.913 131.905 58.6886C129.841 50.3176 125.302 44.0416 117.006 44.0416H105.58V60.098C105.58 69.4285 97.1307 78.6458 87.4479 78.6458H64.6846C56.7477 78.6458 48.9554 84.5033 48.9554 92.4151V119.425C48.9554 127.098 54.489 132.836 62.2246 134.123C62.0327 134.141 67.7486 135.29 72.5995 135.271ZM88.2815 122.687C85.6988 122.687 83.5628 120.558 83.5628 117.962C83.5628 115.342 85.6988 113.25 88.2815 113.25C90.9146 113.25 93.0003 115.339 93.0003 117.962C93.0003 120.548 90.9114 122.687 88.2815 122.687Z" fill="#FFC107"/>
</svg>
