<svg xmlns="http://www.w3.org/2000/svg" width="512" height="512" fill="none" viewBox="0 0 512 512"><g clip-path="url(#clip0_74331_16960)"><path fill="#00B4FF" fill-rule="evenodd" d="M384 512H128C94.0527 511.999 61.4963 498.512 37.492 474.508C13.4876 450.504 0.0014851 417.947 0 384L0 128C0.0014851 94.0527 13.4876 61.4963 37.492 37.492C61.4963 13.4876 94.0527 0.0014851 128 0L384 0C417.948 0 450.505 13.4857 474.51 37.4903C498.514 61.495 512 94.0523 512 128V384C512 417.948 498.514 450.505 474.51 474.51C450.505 498.514 417.948 512 384 512Z" clip-rule="evenodd"/><path fill="#1EC8FF" fill-rule="evenodd" d="M240 144H384C402.458 143.999 420.211 136.909 433.592 124.195C446.974 111.481 454.961 94.114 455.906 75.68C456.851 57.2461 450.68 39.1533 438.668 25.1381C426.657 11.123 409.721 2.25586 391.36 0.368C388.912 0.232 386.488 0 384 0H128C94.0527 0.0014851 61.4963 13.4876 37.492 37.492C13.4876 61.4963 0.0014851 94.0527 0 128L0 384C0.00148515 320.348 25.2876 259.304 70.296 214.296C115.304 169.288 176.348 144.001 240 144" clip-rule="evenodd"/><path fill="#00A0F0" fill-rule="evenodd" d="M384 256C358.684 256 333.937 263.507 312.887 277.572C291.838 291.637 275.431 311.628 265.743 335.017C256.055 358.405 253.521 384.142 258.46 408.972C263.398 433.801 275.589 456.609 293.49 474.51C311.392 492.411 334.199 504.602 359.029 509.541C383.858 514.479 409.595 511.945 432.984 502.257C456.373 492.569 476.363 476.162 490.428 455.113C504.493 434.063 512 409.316 512 384V128C512 161.948 498.514 194.505 474.51 218.51C450.505 242.514 417.948 256 384 256Z" clip-rule="evenodd"/><path fill="#fff" fill-rule="evenodd" d="M383.984 240C383.984 242.122 383.141 244.157 381.641 245.657C380.14 247.157 378.106 248 375.984 248H248C245.878 248 243.843 247.157 242.343 245.657C240.843 244.157 240 242.122 240 240V144.12C240 142.24 240.663 140.419 241.871 138.978C243.079 137.538 244.756 136.568 246.608 136.24C269.8 132.152 347.536 118.432 374.608 113.656C375.759 113.453 376.94 113.504 378.069 113.806C379.198 114.108 380.247 114.654 381.142 115.405C382.037 116.156 382.757 117.095 383.251 118.154C383.744 119.213 384 120.367 384 121.536C383.992 147.024 383.984 216.384 383.984 240ZM214.608 141.888C215.759 141.685 216.94 141.736 218.069 142.038C219.198 142.34 220.247 142.886 221.142 143.637C222.037 144.388 222.757 145.327 223.251 146.386C223.744 147.445 224 148.599 224 149.768V240C224 242.122 223.157 244.157 221.657 245.657C220.156 247.157 218.122 248 216 248H120.016C117.894 248 115.859 247.157 114.359 245.657C112.859 244.157 112.016 242.122 112.016 240C112.008 222.824 111.992 182.672 111.984 166.712C111.983 164.831 112.646 163.011 113.854 161.57C115.062 160.128 116.74 159.159 118.592 158.832C137.616 155.48 192.504 145.792 214.608 141.888V141.888ZM112.032 272C112.032 269.878 112.875 267.843 114.375 266.343C115.875 264.843 117.91 264 120.032 264H216C218.122 264 220.156 264.843 221.657 266.343C223.157 267.843 224 269.878 224 272V362.224C224 363.393 223.744 364.547 223.251 365.606C222.757 366.665 222.037 367.604 221.142 368.355C220.247 369.106 219.198 369.652 218.069 369.954C216.94 370.256 215.759 370.307 214.608 370.104C192.512 366.2 137.672 356.52 118.672 353.168C116.82 352.841 115.142 351.872 113.934 350.43C112.726 348.989 112.063 347.169 112.064 345.288C112.056 329.336 112.04 289.184 112.032 272V272ZM383.968 390.464C383.968 391.633 383.712 392.787 383.219 393.846C382.725 394.905 382.005 395.844 381.11 396.595C380.215 397.346 379.166 397.892 378.037 398.194C376.908 398.496 375.727 398.547 374.576 398.344C347.512 393.568 269.8 379.848 246.608 375.752C244.756 375.425 243.078 374.456 241.87 373.014C240.662 371.573 239.999 369.753 240 367.872V272C240 269.878 240.843 267.843 242.343 266.343C243.843 264.843 245.878 264 248 264H375.984C378.106 264 380.14 264.843 381.641 266.343C383.141 267.843 383.984 269.878 383.984 272C383.976 295.624 383.968 364.984 383.968 390.464V390.464Z" clip-rule="evenodd"/></g><defs><clipPath id="clip0_74331_16960"><rect width="512" height="512" fill="#fff"/></clipPath></defs></svg>