<svg width="715" height="932" viewBox="0 0 715 932" fill="none" xmlns="http://www.w3.org/2000/svg">
<path fill-rule="evenodd" clip-rule="evenodd" d="M539.056 63.274C638.733 69.0445 738.11 11.828 830.895 48.7355C936.871 90.8899 1027.51 172.726 1075.06 276.48C1125.87 387.373 1136.03 516.679 1098.51 632.756C1060.96 748.912 981.455 856.415 870.907 907.997C768.039 955.995 649.052 921.788 539.056 893.796C452.321 871.722 389.635 807.619 310.688 765.428C213.524 713.5 76.4367 715.219 23.7473 618.399C-29.6283 520.318 18.8179 399.041 53.5363 292.897C88.1812 186.978 120.942 61.0757 221.615 13.4633C320.885 -33.4857 429.446 56.9285 539.056 63.274Z" fill="#CCFCFF" fill-opacity="0.5"/>
</svg>
