<svg width="507" height="395" viewBox="0 0 507 395" fill="none" xmlns="http://www.w3.org/2000/svg">
<path fill-rule="evenodd" clip-rule="evenodd" d="M144.73 -269.128C216.06 -280.219 293.024 -287.18 355.164 -250.442C419.879 -212.182 457.788 -141.571 481.279 -70.1565C504.836 1.46069 521.065 83.1446 487.016 150.41C454.34 214.963 369.396 225.333 310.462 267.305C252.37 308.677 215.719 387.33 144.73 394.178C72.64 401.132 9.20241 348.592 -45.9837 301.69C-97.6781 257.755 -136.411 201.876 -157.431 137.373C-178.466 72.8239 -189.921 1.64938 -164.241 -61.196C-139.388 -122.014 -77.4902 -154.962 -22.984 -191.644C29.388 -226.889 82.3522 -259.429 144.73 -269.128Z" fill="#FECCFF" fill-opacity="0.5"/>
</svg>
