<svg width="834" height="594" viewBox="0 0 834 594" fill="none" xmlns="http://www.w3.org/2000/svg">
<g clip-path="url(#clip0_74075_17041)">
<path fill-rule="evenodd" clip-rule="evenodd" d="M279.583 690.539C212.038 654.47 138.738 625.737 95.7683 562.359C49.5134 494.135 28.3865 411.244 34.4948 329.044C40.9327 242.409 62.8843 148.087 130.598 93.6616C196.386 40.784 290.452 61.2478 374.669 55.627C448.992 50.6666 523.317 35.3402 592.547 62.8306C665.857 91.9411 728.996 143.893 768.658 212.075C809.595 282.449 830.71 365.794 815.286 445.734C800.206 523.888 741.594 582.493 686.163 639.614C630.365 697.115 574.658 765.673 495.156 775.63C416.579 785.472 349.438 727.841 279.583 690.539Z" fill="#B1DBFF"/>
<path fill-rule="evenodd" clip-rule="evenodd" d="M407.917 21.6844C482.866 13.1095 551.351 57.2435 615.432 97.0512C679.128 136.62 747.183 178.869 773.797 248.974C800.093 318.238 769.777 392.368 755.117 464.99C739.793 540.905 743.191 628.183 686.58 681.033C629.324 734.484 542.22 729.858 464.181 736.597C385.485 743.392 305.454 752.951 233.598 720.147C155.735 684.6 84.0031 627.341 51.4597 548.176C18.9561 469.107 26.4123 376.699 60.1173 298.135C90.83 226.546 164.896 190.091 225.878 141.619C284.19 95.2698 333.911 30.1512 407.917 21.6844Z" fill="#0468D7"/>
</g>
<defs>
<clipPath id="clip0_74075_17041">
<rect width="834" height="594" fill="white"/>
</clipPath>
</defs>
</svg>
