<svg xmlns="http://www.w3.org/2000/svg" width="844" height="776" fill="none" viewBox="0 0 844 776"><g clip-path="url(#clip0_74645_16955)"><path fill="#B1DBFF" fill-rule="evenodd" d="M284.583 678.539C217.038 642.47 143.738 613.737 100.768 550.359C54.5131 482.135 33.3862 399.243 39.4945 317.044C45.9325 230.409 67.8841 136.087 135.597 81.6617C201.386 28.784 295.452 49.2478 379.669 43.627C453.992 38.6666 528.316 23.3402 597.546 50.8306C670.856 79.9411 733.995 131.893 773.657 200.075C814.595 270.449 835.71 353.794 820.286 433.734C805.206 511.888 746.593 570.493 691.163 627.614C635.365 685.115 579.658 753.673 500.156 763.63C421.579 773.472 354.438 715.841 284.583 678.539Z" clip-rule="evenodd"/><path fill="#0468D7" fill-rule="evenodd" d="M412.916 9.68389C487.866 1.10906 556.351 45.2431 620.431 85.0507C684.128 124.62 752.182 166.869 778.797 236.973C805.093 306.237 774.777 380.367 760.117 452.989C744.792 528.904 748.191 616.182 691.58 669.032C634.324 722.484 547.219 717.858 469.181 724.596C390.485 731.392 310.453 740.951 238.598 708.146C160.735 672.599 89.0028 615.341 56.4595 536.175C23.9558 457.107 31.412 364.699 65.1171 286.135C95.8297 214.546 169.896 178.09 230.878 129.619C289.189 83.2693 338.911 18.1507 412.916 9.68389Z" clip-rule="evenodd"/></g><defs><clipPath id="clip0_74645_16955"><rect width="844" height="776" fill="#fff"/></clipPath></defs></svg>