<svg xmlns="http://www.w3.org/2000/svg" width="196" height="143" fill="none" viewBox="0 0 196 143"><path fill="#0468D7" fill-rule="evenodd" d="M101.195 0.000358556C119.509 0.0543687 137.308 4.75637 151.86 13.0678C166.167 21.239 174.135 33.3906 181.283 45.7431C189.188 59.4046 198.786 73.3894 195.242 88.0365C191.448 103.719 178.364 117.493 161.552 127.293C144.348 137.32 122.949 144.087 101.195 142.856C80.2138 141.668 63.252 130.926 47.1336 120.816C32.0961 111.383 19.4742 100.423 11.9417 86.8723C3.86744 72.3473 -4.63231 56.0055 2.95028 41.3331C10.4365 26.8474 32.1343 20.3847 50.2385 12.7681C66.2416 6.03535 82.8314 -0.0537994 101.195 0.000358556Z" clip-rule="evenodd"/></svg>