<svg width="686" height="673" viewBox="0 0 686 673" fill="none" xmlns="http://www.w3.org/2000/svg">
<path fill-rule="evenodd" clip-rule="evenodd" d="M323.73 8.87223C395.06 -2.21884 472.024 -9.17962 534.164 27.5579C598.879 65.8182 636.788 136.429 660.279 207.843C683.836 279.461 700.064 361.145 666.016 428.41C633.34 492.963 548.396 503.333 489.462 545.305C431.37 586.677 394.719 665.33 323.73 672.178C251.64 679.132 188.202 626.592 133.016 579.69C81.3219 535.755 42.5894 479.876 21.569 415.373C0.533876 350.824 -10.9213 279.649 14.7593 216.804C39.6116 155.986 101.51 123.038 156.016 86.356C208.388 51.1106 261.352 18.5714 323.73 8.87223Z" fill="#FECCFF" fill-opacity="0.5"/>
</svg>
