<svg xmlns="http://www.w3.org/2000/svg" width="457" height="510" fill="none" viewBox="0 0 457 510"><path fill="#FFFFE1" fill-rule="evenodd" d="M234.115 6.8536C290.274 5.29676 351.754 -13.3318 398.13 18.3329C444.791 50.192 453.831 113.162 469.32 167.447C484.211 219.634 501.53 273.481 485.749 325.407C469.806 377.868 427.98 416.945 383.662 449.305C339.225 481.752 289.054 505.671 234.115 509.145C176.553 512.786 114.648 505.767 70.1428 469.132C26.6653 433.343 12.5332 374.224 2.87013 318.792C-5.68521 269.714 6.45752 222.158 18.67 173.858C31.8722 121.643 33.9854 60.269 76.586 27.2468C119.462 -5.98858 179.859 8.35771 234.115 6.8536Z" clip-rule="evenodd"/></svg>