<svg xmlns="http://www.w3.org/2000/svg" width="76" height="67" fill="none" viewBox="0 0 76 67"><path fill="#1689FC" d="M60.9777 25.8729C60.5776 25.3386 59.9089 25.0269 59.2414 25.0269H16.7584C16.0909 25.0269 15.4224 25.3386 15.0222 25.8729C14.5764 26.4073 14.4427 27.1197 14.6209 27.7431L18.0053 41.7259C18.1391 42.2158 18.4505 42.6609 18.8511 42.9726C24.5069 47.2033 31.2311 49.2964 38 49.2964C44.7689 49.2964 51.4931 47.2033 57.1486 42.9728C57.5492 42.6611 57.8606 42.2159 57.9944 41.7261L61.3788 27.7433C61.5572 27.1197 61.4234 26.4073 60.9777 25.8729Z"/><path fill="#136EF1" d="M61.3789 27.7431L57.9945 41.7259C57.8608 42.2158 57.5494 42.6609 57.1487 42.9726C51.4931 47.2033 44.7689 49.2964 38 49.2964V25.0269H59.2416C59.9091 25.0269 60.5776 25.3386 60.9778 25.8729C61.4234 26.4073 61.5572 27.1197 61.3789 27.7431Z"/><path fill="#18A7FC" d="M74.753 18.0352L38.9795 0.222656C38.6681 0.0889141 38.3565 0 38 0C37.6435 0 37.3319 0.0889141 37.0205 0.222656L1.24702 18.0352C0.489844 18.4359 0 19.193 0 20.0391C0 20.8852 0.489844 21.6422 1.24702 22.043L37.0205 39.8555C37.3319 39.9889 37.6435 40.0781 38 40.0781C38.3565 40.0781 38.6681 39.9889 38.9795 39.8555L74.753 22.043C75.5102 21.6422 76 20.8852 76 20.0391C76 19.193 75.5102 18.4359 74.753 18.0352Z"/><path fill="#57555C" d="M69.1719 44.5312C67.9412 44.5312 66.9453 43.5354 66.9453 42.3047V22.2656C66.9453 21.0349 67.9412 20.0391 69.1719 20.0391C70.4026 20.0391 71.3984 21.0349 71.3984 22.2656V42.3047C71.3984 43.5354 70.4026 44.5312 69.1719 44.5312Z"/><path fill="#FCBF29" d="M69.1719 66.7968C68.737 66.7968 68.3065 66.6706 67.9324 66.4184C67.3758 66.0445 62.4922 62.6307 62.4922 57.8905C62.4922 53.1503 67.3758 49.7366 67.9324 49.3627C68.6804 48.8583 69.6632 48.8583 70.4112 49.3627C70.968 49.7366 75.8516 53.1503 75.8516 57.8905C75.8516 62.6307 70.968 66.0445 70.4113 66.4184C70.0373 66.6706 69.6068 66.7968 69.1719 66.7968Z"/><path fill="#1689FC" d="M69.1718 53.4375C65.4885 53.4375 62.4922 50.4411 62.4922 46.7578C62.4922 43.0745 65.4885 40.0781 69.1718 40.0781C72.8552 40.0781 75.8515 43.0745 75.8515 46.7578C75.8515 50.4411 72.8552 53.4375 69.1718 53.4375Z"/><path fill="#1689FC" d="M74.753 18.0352C75.5102 18.4359 76 19.193 76 20.0391C76 20.8852 75.5102 21.6422 74.753 22.043L38.9795 39.8555C38.6681 39.9889 38.3565 40.0781 38 40.0781V0C38.3565 0 38.6681 0.0889141 38.9795 0.222656L74.753 18.0352Z"/><path fill="#1689FC" d="M48.9991 17.6791C46.0605 20.6628 42.1411 22.266 38 22.266C33.8589 22.266 29.9396 20.6628 27.001 17.6791C26.1105 16.833 26.1105 15.408 27.001 14.5619C27.8468 13.6714 29.272 13.6714 30.118 14.5619C32.2108 16.655 35.1055 17.7238 38.0002 17.7238C40.8949 17.7238 43.7894 16.655 45.8824 14.5619C46.7282 13.6714 48.1535 13.6714 48.9994 14.5619C49.8896 15.408 49.8896 16.833 48.9991 17.6791Z"/><path fill="#136EF1" d="M48.9991 17.6792C46.0604 20.663 42.1411 22.2661 38 22.2661V17.7238C40.8947 17.7238 43.7892 16.655 45.8822 14.5619C46.728 13.6714 48.1533 13.6714 48.9992 14.5619C49.8895 15.4081 49.8895 16.8331 48.9991 17.6792Z"/></svg>