<svg width="788" height="731" viewBox="0 0 788 731" fill="none" xmlns="http://www.w3.org/2000/svg">
<path fill-rule="evenodd" clip-rule="evenodd" d="M247.048 643.803C179.504 607.734 106.203 579.002 63.2338 515.623C16.9788 447.399 -4.14805 364.508 1.96022 282.308C8.39819 195.673 30.3498 101.351 98.063 46.9258C163.851 -5.95186 257.917 14.5119 342.135 8.89117C416.458 3.93073 490.782 -11.3956 560.012 16.0947C633.322 45.2052 696.461 97.1575 736.123 165.339C777.06 235.713 798.176 319.058 782.751 398.998C767.671 477.152 709.059 535.757 653.628 592.879C597.831 650.379 542.123 718.937 462.622 728.894C384.044 738.736 316.904 681.105 247.048 643.803Z" fill="#B1DBFF"/>
</svg>
