<svg xmlns="http://www.w3.org/2000/svg" width="72" height="72" fill="none" viewBox="0 0 72 72"><path fill="#A97C50" d="M65.4127 14.8103V66.6468C65.4127 67.9561 64.8926 69.2118 63.9668 70.1377C63.0409 71.0635 61.7852 71.5836 60.4759 71.5836H18.5131C17.4449 71.5836 16.4055 71.2372 15.551 70.5963C15.2125 70.3462 14.9094 70.0514 14.65 69.72C13.9572 68.8452 13.5789 67.7627 13.5763 66.6468V14.8103C13.5763 13.501 14.0964 12.2453 15.0222 11.3195C15.9481 10.3937 17.2037 9.87354 18.5131 9.87354H60.4759C61.7852 9.87354 63.0409 10.3937 63.9668 11.3195C64.8926 12.2453 65.4127 13.501 65.4127 14.8103Z"/><path fill="#E6E7E8" d="M60.4759 16.0447V56.7734H53.0707C52.4166 56.7754 51.7899 57.036 51.3274 57.4985C50.8649 57.961 50.6042 58.5877 50.6023 59.2418V66.647H19.7472C19.4199 66.647 19.106 66.517 18.8745 66.2855C18.6431 66.0541 18.513 65.7401 18.513 65.4128V16.0447C18.513 15.7174 18.6431 15.4035 18.8745 15.172C19.106 14.9406 19.4199 14.8105 19.7472 14.8105H59.2417C59.569 14.8105 59.883 14.9406 60.1144 15.172C60.3459 15.4035 60.4759 15.7174 60.4759 16.0447Z"/><path fill="#D8D7DA" d="M44.2215 49.9975L43.3452 54.3665L40.7287 56.983C40.2699 57.4486 40.0128 58.0759 40.0128 58.7294C40.0128 59.383 40.2699 60.0103 40.7287 60.4758C40.9579 60.7053 41.2302 60.8874 41.5298 61.0116C41.8295 61.1358 42.1507 61.1998 42.4751 61.1998C42.7994 61.1998 43.1207 61.1358 43.4203 61.0116C43.72 60.8874 43.9922 60.7053 44.2215 60.4758L46.838 57.8593L51.207 56.983L52.071 56.1068L60.4759 47.7018V33.7554L44.2215 49.9975Z"/><path fill="#8B5E3C" d="M65.4127 28.8184L60.4759 33.7527V47.7016L65.4127 42.7648V28.8184Z"/><path fill="#D8D7DA" d="M30.4601 61.056C30.1709 62.1934 29.7178 63.2827 29.1148 64.2896L30.8797 66.6469H19.7472C19.4199 66.6469 19.106 66.5169 18.8745 66.2854C18.6431 66.054 18.513 65.7401 18.513 65.4127V41.9629H20.9814L21.5615 46.0604C22.699 46.3496 23.7882 46.8028 24.7951 47.4057L28.1151 44.9126L31.6079 48.4054L29.1148 51.7254C29.7178 52.7323 30.1709 53.8216 30.4601 54.959L34.5577 55.5391V60.4759L30.4601 61.056Z"/><path fill="#E6E7E8" d="M70.547 25.7208C70.0912 25.2609 69.5492 24.8956 68.9519 24.6457C68.3547 24.3958 67.7139 24.2662 67.0665 24.2644C66.502 24.2635 65.9418 24.3638 65.4127 24.5606C64.7197 24.803 64.0909 25.1997 63.5737 25.7208L61.8212 27.461L65.4127 31.0525L68.8067 34.4466L70.547 32.694C71.0074 32.2376 71.3728 31.6945 71.6222 31.096C71.8716 30.4976 72 29.8557 72 29.2074C72 28.5591 71.8716 27.9172 71.6222 27.3187C71.3728 26.7203 71.0074 26.1772 70.547 25.7208V25.7208Z"/><path fill="#FFA733" d="M65.4127 31.0525L61.8211 27.4609L60.4759 28.8062V28.8186L59.2046 30.0774L60.4759 31.3487L62.6974 33.5702L65.4127 36.2855L66.1902 37.063L68.8067 34.4465L65.4127 31.0525Z"/><path fill="#D1D3D4" d="M60.4759 56.7732L50.6023 66.6468V59.2416C50.6042 58.5875 50.8649 57.9608 51.3274 57.4983C51.7899 57.0358 52.4166 56.7751 53.0707 56.7732H60.4759Z"/><path fill="#E6E7E8" d="M60.4759 56.7732V65.4126C60.4759 65.7399 60.3459 66.0539 60.1144 66.2853C59.8829 66.5168 59.569 66.6468 59.2417 66.6468H50.6023L60.4759 56.7732Z"/><path fill="#787680" d="M44.3695 55.3915L41.753 58.008C41.4071 58.3518 40.9671 58.5855 40.4885 58.6795C40.0099 58.7735 39.5142 58.7236 39.0639 58.5361C38.6136 58.3486 38.229 58.0319 37.9586 57.626C37.6881 57.2201 37.544 56.7432 37.5444 56.2554C37.543 55.9325 37.6055 55.6124 37.7284 55.3138C37.8512 55.0151 38.032 54.7437 38.2602 54.5152L40.8767 51.8987L44.3695 55.3915Z"/><path fill="#898890" d="M49.6025 53.6385L48.7386 54.5148L44.3695 55.3911L40.8767 51.8983L41.753 47.5292L42.6293 46.6653L46.1098 50.1581H46.1221L49.6025 53.6385Z"/><path fill="#00CCB3" d="M60.4759 31.3491L59.2047 30.0779L42.6293 46.6656L46.1098 50.1583H46.1221L60.4759 35.7922L62.6974 33.5707L60.4759 31.3491Z"/><path fill="#00B39D" d="M65.4127 36.2853L62.6974 33.5701L60.4759 35.7916L46.1221 50.1577L49.6025 53.6382L60.4759 42.7649L65.4127 37.8281L66.1902 37.0629L65.4127 36.2853Z"/><path fill="#FF5023" d="M34.9032 29.2752C35.5329 30.1828 35.8399 31.2754 35.7753 32.3781C35.7106 33.4808 35.278 34.53 34.5466 35.3579C33.8152 36.1857 32.8273 36.7443 31.7409 36.9443C30.6546 37.1444 29.5325 36.9743 28.5542 36.4613C27.5759 35.9483 26.7979 35.122 26.3447 34.1146C25.8915 33.1072 25.7893 31.977 26.0543 30.9046C26.3194 29.8322 26.9364 28.8797 27.8067 28.1995C28.6771 27.5192 29.7504 27.1505 30.855 27.1524C31.6508 27.1546 32.4342 27.3487 33.139 27.7183C33.8437 28.0878 34.4489 28.6219 34.9032 29.2752V29.2752Z"/><path fill="#FFA733" d="M25.9183 16.0444H53.0707V19.747H25.9183V16.0444Z"/><path fill="#FF9811" d="M51.3922 9.87361C50.4922 9.07988 49.3339 8.64114 48.1339 8.63941H44.4313V4.93681C44.4313 3.62748 43.9112 2.37179 42.9853 1.44596C42.0595 0.520126 40.8038 0 39.4945 0C38.1852 0 36.9295 0.520126 36.0036 1.44596C35.0778 2.37179 34.5577 3.62748 34.5577 4.93681V8.63941H30.8551C29.5466 8.64234 28.2927 9.16341 27.3675 10.0886C26.4423 11.0138 25.9212 12.2678 25.9183 13.5762V16.0446H53.0707V13.5762C53.0711 12.8751 52.9215 12.1819 52.632 11.5433C52.3425 10.9047 51.9198 10.3354 51.3922 9.87361V9.87361Z"/><path fill="#8B5E3C" d="M31.608 67.6096L30.1022 69.1153L28.1152 71.1024L25.474 69.1153L24.7952 68.6093C24.4876 68.7948 24.1704 68.9638 23.8448 69.1153C23.1149 69.4736 22.3497 69.7548 21.5615 69.9546L21.3271 71.5837H18.5131C17.4449 71.5837 16.4055 71.2373 15.551 70.5964L15.4646 69.9546C15.1931 69.8805 14.9092 69.8065 14.65 69.7201C13.9572 68.8453 13.5789 67.7628 13.5763 66.6469V46.7269C14.1842 46.4481 14.8163 46.225 15.4646 46.0604L16.0447 41.9629H18.5131V65.4127C18.5131 65.7401 18.6431 66.054 18.8746 66.2854C19.106 66.5169 19.4199 66.6469 19.7473 66.6469H30.8798L31.608 67.6096Z"/><path fill="#FF9811" d="M27.9917 58.5875C27.7025 59.7249 27.2493 60.8142 26.6464 61.8211L29.1395 65.1411L27.6338 66.6468L25.6467 68.6339L23.0055 66.6468L22.3267 66.1408C22.0192 66.3263 21.702 66.4953 21.3764 66.6468C20.6465 67.005 19.8812 67.2863 19.0931 67.4861L18.513 71.5836H13.5762L12.9961 67.4861C11.8587 67.1969 10.7694 66.7437 9.76253 66.1408L6.44253 68.6339L2.94974 65.1411L5.44283 61.8211C4.8399 60.8142 4.38672 59.7249 4.09755 58.5875L0 58.0074V53.0706L4.09755 52.4905C4.38672 51.3531 4.8399 50.2638 5.44283 49.2569L2.94974 45.9369L6.44253 42.4441L9.76253 44.9372C10.7694 44.3343 11.8587 43.8811 12.9961 43.5919L13.5762 39.4944H18.513L19.0931 43.5919C20.2305 43.8811 21.3198 44.3343 22.3267 44.9372L25.6467 42.4441L29.1395 45.9369L26.6464 49.2569C27.2493 50.2638 27.7025 51.3531 27.9917 52.4905L32.0892 53.0706V58.0074L27.9917 58.5875Z"/><path fill="#FFD422" d="M18.513 49.8744C17.7329 49.5406 16.8932 49.3684 16.0446 49.3684C15.1961 49.3684 14.3563 49.5406 13.5762 49.8744C12.4752 50.3567 11.5386 51.1493 10.8809 52.1554C10.2232 53.1615 9.87296 54.3374 9.87296 55.5394C9.87296 56.7414 10.2232 57.9173 10.8809 58.9234C11.5386 59.9295 12.4752 60.7222 13.5762 61.2044C14.3563 61.5383 15.1961 61.7104 16.0446 61.7104C16.8932 61.7104 17.7329 61.5383 18.513 61.2044C19.614 60.7222 20.5506 59.9295 21.2083 58.9234C21.866 57.9173 22.2163 56.7414 22.2163 55.5394C22.2163 54.3374 21.866 53.1615 21.2083 52.1554C20.5506 51.1493 19.614 50.3567 18.513 49.8744Z"/><path fill="#CC7400" d="M38.2603 3.70239H40.7287V6.1708H38.2603V3.70239Z"/><path fill="#EE8700" d="M14.8104 43.1973H17.2788V45.6657H14.8104V43.1973Z"/><path fill="#EE8700" d="M6.43796 47.6814L8.18338 45.936L9.92881 47.6814L8.18338 49.4268L6.43796 47.6814Z"/><path fill="#EE8700" d="M3.70258 54.3052H6.17098V56.7736H3.70258V54.3052Z"/><path fill="#EE8700" d="M6.43631 63.3884L8.18173 61.643L9.92716 63.3884L8.18173 65.1338L6.43631 63.3884Z"/><path fill="#EE8700" d="M14.8104 65.4126H17.2788V67.881H14.8104V65.4126Z"/><path fill="#EE8700" d="M22.1436 63.3899L23.8891 61.6445L25.6345 63.3899L23.8891 65.1353L22.1436 63.3899Z"/><path fill="#EE8700" d="M25.9182 54.3052H28.3866V56.7736H25.9182V54.3052Z"/><path fill="#EE8700" d="M22.1452 47.6829L23.8906 45.9374L25.6361 47.6829L23.8906 49.4283L22.1452 47.6829Z"/><path fill="#D80027" d="M29.9751 32.4512L36.1451 26.2812L37.8903 28.0263L31.7203 34.1963L29.9751 32.4512Z"/><path fill="#C6C5CA" d="M39.4944 28.387H41.9628V30.8554H39.4944V28.387Z"/><path fill="#C6C5CA" d="M44.4312 28.387H49.3681V30.8554H44.4312V28.387Z"/><path fill="#C6C5CA" d="M39.4944 33.3232H46.8997V35.7916H39.4944V33.3232Z"/></svg>