<svg xmlns="http://www.w3.org/2000/svg" width="100" height="100" fill="none" viewBox="0 0 100 100"><path fill="#FEFDEF" d="M82 63.613V36.387C82 33.379 80.397 30.598 77.789 29.094L54.211 15.48C51.605 13.976 48.397 13.976 45.79 15.48L22.211 29.094C19.605 30.598 18 33.379 18 36.387V63.614C18 66.622 19.605 69.403 22.211 70.907L45.789 84.52C48.396 86.024 51.605 86.024 54.21 84.52L77.789 70.907C80.397 69.402 82 66.621 82 63.613Z"/><path fill="#444445" d="M76.843 33.356L53.346 46.411C51.281 47.558 50 49.733 50 52.096V82.118C50 83.93 51.948 85.077 53.534 84.197L78.968 70.066C79.807 69.365 80.494 68.517 81 67.566V35.804C81 33.67 78.708 32.319 76.843 33.356Z"/><path fill="#FEFDEF" d="M60.092 52.778C60.281 52.682 60.437 52.8 60.439 53.047L60.459 55.068C61.304 54.733 62.039 54.642 62.706 54.797C62.851 54.834 62.915 55.031 62.856 55.265L62.411 57.055C62.374 57.191 62.3 57.328 62.209 57.412C62.169 57.451 62.13 57.479 62.091 57.5C62.03 57.53 61.971 57.54 61.916 57.529C61.611 57.46 60.889 57.302 59.752 57.878C58.56 58.483 58.142 59.518 58.15 60.286C58.16 61.206 58.632 61.485 60.259 61.514C62.427 61.549 63.363 62.498 63.385 64.679C63.409 66.825 62.263 69.127 60.512 70.537L60.551 72.54C60.553 72.781 60.398 73.057 60.207 73.153L59.021 73.835C58.832 73.931 58.676 73.813 58.674 73.572L58.654 71.603C57.638 72.026 56.611 72.127 55.954 71.864C55.829 71.815 55.775 71.632 55.826 71.423L56.255 69.614C56.289 69.473 56.364 69.329 56.467 69.238C56.502 69.203 56.541 69.176 56.578 69.157C56.645 69.123 56.711 69.115 56.768 69.137C57.475 69.374 58.38 69.263 59.252 68.822C60.357 68.263 61.098 67.134 61.086 66.013C61.076 64.997 60.525 64.575 59.186 64.565C57.482 64.568 55.893 64.235 55.866 61.725C55.844 59.658 56.919 57.509 58.62 56.15L58.6 54.13C58.598 53.882 58.75 53.61 58.944 53.51L60.092 52.778Z"/><path fill="#4DA925" d="M71.572 68.64L65.868 71.825C65.759 71.886 65.624 71.806 65.624 71.682V70.43C65.624 70.317 65.685 70.213 65.784 70.157L71.488 66.972C71.599 66.911 71.734 66.991 71.734 67.117V68.365C71.734 68.48 71.672 68.584 71.572 68.64Z"/><path fill="#1F212B" d="M44 78.213C43.915 78.213 43.829 78.192 43.75 78.146L41.75 76.991C41.511 76.853 41.429 76.547 41.567 76.308C41.705 76.068 42.011 75.988 42.25 76.125L44.25 77.28C44.489 77.418 44.571 77.724 44.433 77.963C44.341 78.124 44.172 78.213 44 78.213ZM40 75.904C39.915 75.904 39.829 75.883 39.75 75.837L28.657 69.433C28.418 69.295 28.336 68.989 28.474 68.75C28.612 68.511 28.918 68.431 29.157 68.567L40.25 74.971C40.489 75.109 40.571 75.415 40.433 75.654C40.341 75.814 40.172 75.904 40 75.904ZM27 68.398C26.915 68.398 26.829 68.377 26.75 68.331L24.645 67.116C23.322 66.352 22.5 64.929 22.5 63.401V46C22.5 45.724 22.724 45.5 23 45.5C23.276 45.5 23.5 45.724 23.5 46V63.401C23.5 64.572 24.13 65.664 25.145 66.25L27.25 67.465C27.489 67.603 27.571 67.909 27.433 68.148C27.341 68.309 27.172 68.398 27 68.398ZM23 44.5C22.724 44.5 22.5 44.276 22.5 44V41C22.5 40.724 22.724 40.5 23 40.5C23.276 40.5 23.5 40.724 23.5 41V44C23.5 44.276 23.276 44.5 23 44.5ZM23 39.5C22.724 39.5 22.5 39.276 22.5 39V36.6C22.5 36.324 22.724 36.1 23 36.1C23.276 36.1 23.5 36.324 23.5 36.6V39C23.5 39.276 23.276 39.5 23 39.5Z"/><path fill="#1F212B" d="M77.855 28.553L54.645 15.154C51.829 13.527 48.179 13.525 45.355 15.154L22.144 28.554C19.279 30.209 17.5 33.292 17.5 36.6V63.402C17.5 66.71 19.279 69.793 22.145 71.447L45.357 84.847C46.769 85.661 48.375 86.092 50.001 86.092C51.629 86.092 53.235 85.661 54.646 84.847L77.857 71.447C80.721 69.794 82.502 66.712 82.502 63.402V36.6C82.5 33.291 80.721 30.208 77.855 28.553ZM46.355 83.114L23.144 69.714C20.896 68.416 19.499 65.998 19.499 63.402V36.6C19.499 34.004 20.895 31.585 23.144 30.286L46.355 16.887C47.462 16.248 48.722 15.91 50 15.91C51.279 15.91 52.539 16.248 53.645 16.887L76.856 30.286C77.907 30.893 78.762 31.751 79.385 32.751C78.478 32.396 77.474 32.434 76.6 32.92L53.104 45.974C50.881 47.208 49.5 49.554 49.5 52.096V82.118C49.5 82.856 49.782 83.535 50.263 84.057C48.909 84.104 47.541 83.798 46.355 83.114ZM76.855 69.714L53.644 83.114C53.044 83.46 52.395 83.705 51.726 83.863C51.625 83.825 51.522 83.791 51.426 83.734C50.846 83.393 50.5 82.788 50.5 82.117V52.096C50.5 49.917 51.684 47.906 53.59 46.848L77.086 33.794C77.437 33.599 77.819 33.502 78.202 33.502C78.602 33.502 79.003 33.609 79.366 33.822C79.783 34.067 80.085 34.431 80.277 34.85C80.418 35.417 80.5 36.003 80.5 36.6V63.402C80.5 65.999 79.104 68.417 76.855 69.714Z"/></svg>