<svg xmlns="http://www.w3.org/2000/svg" width="48" height="48" fill="none" viewBox="0 0 48 48"><path fill="#7E57C2" d="M7 41V7C7 4.791 8.791 3 11 3H37C39.209 3 41 4.785 41 6.994C41 15.012 41 32.985 41 41.004C41 43.214 39.209 45 37 45H11C8.791 45 7 43.209 7 41Z"/><path fill="#fff" d="M28.292 39.221V22.541C28.292 22.541 29.377 18.55 14.928 24.174C14.902 24.245 14.902 8.74999 14.902 8.74999L19.623 8.72099V18.649C19.623 18.649 32.841 13.443 32.841 22.597V39.22L28.292 39.221ZM30.982 14.73H25.975C27.777 12.526 29.409 8.74999 29.409 8.74999H34.587C34.586 8.75099 33.7 11.211 30.982 14.73ZM14.987 39.192V29.694L19.737 34.444L14.987 39.192Z"/></svg>