<svg xmlns="http://www.w3.org/2000/svg" width="78" height="78" fill="none" viewBox="0 0 78 78"><path fill="#212121" d="M28.0122 70.2C30.2313 70.2 30.8365 69.3249 30.8365 68.2469C30.8365 67.2821 30.8022 64.7268 30.7851 61.3408C19.2871 63.79 16.8621 55.8917 16.8621 55.8917C14.9815 51.2039 12.2632 49.9497 12.2632 49.9497C8.51917 47.4318 12.5526 47.4833 12.5526 47.4833C16.7037 47.7657 18.8838 51.6688 18.8838 51.6688C22.5693 57.8792 28.5597 56.0852 30.9231 55.0478C31.2952 52.4192 32.3599 50.6314 33.5408 49.6158C24.361 48.5995 14.7124 45.1067 14.7124 29.5441C14.7124 25.1106 16.3145 21.4875 18.9665 18.6452C18.5016 17.6187 17.1062 13.4886 19.3284 7.89442C19.3284 7.89442 22.7901 6.80554 30.6954 12.0588C34.0026 11.1564 37.5157 10.7087 41.0296 10.6876C44.5435 10.7079 48.0566 11.1564 51.3638 12.0588C59.2176 6.80554 62.6793 7.89442 62.6793 7.89442C64.9007 13.4886 63.5061 17.6187 63.0927 18.6452C65.7275 21.4867 67.3296 25.1106 67.3296 29.5441C67.3296 45.148 57.6678 48.5823 48.47 49.5815C49.9169 50.8007 51.2601 53.2912 51.2601 57.0976C51.2601 62.5334 51.2086 66.9014 51.2086 68.2204C51.2086 69.2851 51.6688 70.1493 54.0501 70.1493L28.0122 70.2Z"/></svg>