<svg width="262" height="262" viewBox="0 0 262 262" fill="none" xmlns="http://www.w3.org/2000/svg">
<path d="M54.5833 65.5L70.9583 201.958L27.1879 158.188C20.698 151.698 18.9568 141.835 22.8431 133.516L54.5833 65.5Z" fill="#1565C0"/>
<path d="M149.116 34.4912C144.504 29.8789 138.254 27.2916 131.737 27.2916C127.67 27.2916 123.664 28.3014 120.083 30.2282L54.5833 65.5V176.539C54.5833 182.33 56.8812 187.881 60.9804 191.975L70.9583 201.958H191.042V174.667L229.25 114.625L149.116 34.4912Z" fill="#42A5F5"/>
<path d="M54.5833 65.5H171.08C176.872 65.5 182.423 67.798 186.517 71.8972L229.25 114.625V201.958H191.042L54.5833 65.5Z" fill="#1565C0"/>
<path d="M191.042 201.958H70.9583L103.708 234.708H191.042V201.958Z" fill="#85CBF8"/>
</svg>
