<svg width="188" height="188" viewBox="0 0 188 188" fill="none" xmlns="http://www.w3.org/2000/svg">
<path d="M94.22 94C94.22 76.6951 108.248 62.6667 125.553 62.6667C142.858 62.6667 156.886 76.6955 156.886 94C156.886 111.305 142.858 125.333 125.553 125.333C108.248 125.333 94.22 111.305 94.22 94V94Z" fill="#00BCFF"/>
<path d="M31.5532 156.667C31.5532 139.362 45.5816 125.334 62.8864 125.334L79.5843 116.518L94.2196 125.334V156.667C94.2196 173.972 80.1912 188 62.8864 188C45.5816 188 31.5532 173.972 31.5532 156.667V156.667Z" fill="#00CF7F"/>
<path d="M94.2199 0L77.1699 29.621L94.2199 62.6664H125.114C142.419 62.6664 156.447 48.638 156.447 31.3332C156.447 14.0284 142.418 0 125.114 0H94.2199Z" fill="#FF7361"/>
<path d="M31.1133 31.3332C31.1133 48.638 45.1417 62.6664 62.4465 62.6664L79.068 69.0863L94.2192 62.6664V0H62.4461C45.1417 0 31.1133 14.0284 31.1133 31.3332V31.3332Z" fill="#FF4D12"/>
<path d="M31.5532 94.0001C31.5532 111.305 45.5816 125.333 62.8864 125.333H94.2196V62.6665H62.8864C45.5816 62.6665 31.5532 76.6953 31.5532 94.0001V94.0001Z" fill="#B659FF"/>
</svg>
