<svg width="187" height="187" viewBox="0 0 187 187" fill="none" xmlns="http://www.w3.org/2000/svg">
<path d="M170.18 113.915L164.733 52.5503L100.902 0V33.504L130.511 50.6456C131.68 51.4246 131.68 52.9831 130.511 53.3728L95.4483 73.6313C94.2795 74.4103 93.1108 74.021 92.3317 73.6313L57.2692 53.3728C56.1005 52.9831 56.1005 51.0353 57.2692 50.6456L86.8777 33.504V0L10.9089 43.6335V130.9V130.51V130.9L39.738 114.148V79.8643C39.738 78.6956 41.2964 77.9165 42.0755 78.3059L77.138 98.5643C78.3067 99.3434 78.6964 100.123 78.6964 101.292V141.808C78.6964 142.977 77.138 143.756 76.3589 143.367L46.7501 126.225L17.9211 142.977L93.5001 187L169.079 143.367L140.25 126.615L110.642 143.756C109.473 144.535 108.304 143.756 108.304 142.198V101.681C108.304 100.512 109.083 99.3438 109.863 98.9541L144.925 78.6956C146.094 77.9165 147.263 78.6956 147.263 80.254V114.538L170.18 113.915Z" fill="#4C4C4C"/>
<path d="M93.5 187L169.079 143.367L140.25 126.615L110.642 143.756C109.473 144.535 108.304 143.756 108.304 142.198V101.681C108.304 100.513 109.083 99.3438 109.862 98.9541L144.925 78.6957C146.094 77.9166 147.263 78.6957 147.263 80.2541V114.538L176.092 131.29V43.6335L127.482 59.2579L93.5 91.5523V187Z" fill="black"/>
<path d="M100.902 0V33.504L130.511 50.6456C131.68 51.4246 131.68 52.9831 130.511 53.3728L95.4483 73.6313C94.2795 74.4103 93.1108 74.021 92.3317 73.6313L57.2692 53.3728C56.1005 52.9831 56.1005 51.0353 57.2692 50.6456L86.8777 33.504V0L10.9089 43.6335L93.5001 91.5522L176.092 43.6335L100.902 0Z" fill="#808080"/>
</svg>
