<svg xmlns="http://www.w3.org/2000/svg" width="78" height="78" fill="none" viewBox="0 0 78 78"><g clip-path="url(#clip0_74187_16612)"><path fill="#FF3980" d="M21.0957 77.9999C20.913 77.9999 20.7291 77.978 20.5475 77.9332C19.7703 77.7412 19.1504 77.1565 18.913 76.3921L14.8231 63.2146L1.64563 59.1245C0.881013 58.8872 0.296622 58.2673 0.104669 57.4902C-0.0874363 56.7131 0.141079 55.8922 0.707189 55.3263L29.16 26.8735C29.5885 26.445 30.1697 26.2041 30.7757 26.2041C31.3818 26.2041 31.9631 26.445 32.3915 26.8735L51.164 45.6461C52.0565 46.5385 52.0565 47.9853 51.164 48.8777L22.7114 77.3305C22.2778 77.7644 21.6944 77.9999 21.0957 77.9999Z"/><path fill="#C09" d="M56.9045 78C56.3058 78 55.7223 77.7643 55.2888 77.3306L26.836 48.878C25.9435 47.9855 25.9435 46.5387 26.836 45.6463L45.6085 26.8737C46.0371 26.4452 46.6183 26.2043 47.2243 26.2043C47.8303 26.2043 48.4117 26.4452 48.8401 26.8737L77.2929 55.3265C77.859 55.8925 78.0875 56.7135 77.8954 57.4904C77.7034 58.2675 77.1189 58.8874 76.3544 59.1248L63.177 63.2149L59.087 76.3923C58.8497 77.1568 58.2298 77.7413 57.4525 77.9334C57.2711 77.9781 57.087 78 56.9045 78Z"/><path fill="#FFF26C" d="M59.1338 50.9156C70.2574 39.7919 70.2574 21.7569 59.1338 10.6332C48.0101 -0.490489 29.975 -0.490487 18.8513 10.6332C7.72764 21.7569 7.72764 39.7919 18.8513 50.9156C29.975 62.0393 48.0101 62.0393 59.1338 50.9156Z"/><path fill="#FFDB00" fill-rule="evenodd" d="M39.0002 2.28516V59.2617C54.691 59.2617 67.4883 46.4642 67.4883 30.7734C67.4883 15.0826 54.691 2.28516 39.0002 2.28516Z" clip-rule="evenodd"/><path fill="#FDBF00" d="M39 61.5469C22.0315 61.5469 8.22656 47.7419 8.22656 30.7734C8.22656 13.8049 22.0315 0 39 0C55.9685 0 69.7734 13.8049 69.7734 30.7734C69.7734 47.7419 55.9685 61.5469 39 61.5469ZM39 4.57031C24.5516 4.57031 12.7969 16.325 12.7969 30.7734C12.7969 45.2219 24.5516 56.9766 39 56.9766C53.4484 56.9766 65.2031 45.2219 65.2031 30.7734C65.2031 16.325 53.4484 4.57031 39 4.57031Z"/><path fill="#FDBF00" d="M39 52.7109C26.9036 52.7109 17.0625 42.8698 17.0625 30.7734C17.0625 18.677 26.9036 8.83594 39 8.83594C51.0964 8.83594 60.9375 18.677 60.9375 30.7734C60.9375 42.8698 51.0965 52.7109 39 52.7109Z"/><path fill="#FF8856" d="M39.0002 0V4.57031C53.4486 4.57031 65.2032 16.325 65.2032 30.7734C65.2032 45.2219 53.4485 56.9766 39.0002 56.9766V61.5469C55.9687 61.5469 69.7735 47.7419 69.7735 30.7734C69.7735 13.8049 55.9687 0 39.0002 0Z"/><path fill="#FF8856" d="M39.0002 8.83594V52.7109C51.0966 52.7109 60.9375 42.8698 60.9375 30.7734C60.9375 18.677 51.0966 8.83609 39.0002 8.83594Z"/><path fill="#FFF26C" d="M45.4965 42.389C45.2277 42.389 44.9575 42.3416 44.6986 42.245L39 40.1207L33.3016 42.245C32.584 42.5125 31.7801 42.4028 31.1602 41.9525C30.5405 41.5023 30.1875 40.7715 30.2203 40.0063L30.4797 33.9304L26.6985 29.1672C26.2223 28.5673 26.0783 27.7687 26.3149 27.0403C26.5515 26.312 27.1374 25.7504 27.8754 25.5451L33.7341 23.9141L37.0955 18.846C37.5189 18.2077 38.234 17.824 38.9998 17.824C39.7657 17.824 40.4808 18.2077 40.9041 18.846L44.2656 23.9141L50.1243 25.5451C50.8622 25.7506 51.448 26.312 51.6847 27.0403C51.9215 27.7687 51.7774 28.5674 51.3011 29.1672L47.52 33.9302L47.7794 40.0062C47.8122 40.7714 47.4592 41.5022 46.8395 41.9523C46.4438 42.2403 45.9725 42.389 45.4965 42.389Z"/><path fill="#FFDB00" d="M51.6851 27.0406C51.4483 26.312 50.8626 25.7507 50.1246 25.5453L44.2659 23.9143L40.9043 18.8463C40.481 18.208 39.766 17.8242 39.0002 17.8242V40.1209L44.6984 42.2451C44.9574 42.3417 45.2277 42.389 45.4964 42.389C45.9723 42.389 46.4437 42.2404 46.8396 41.9526C47.4594 41.5024 47.8123 40.7716 47.7796 40.0064L47.5201 33.9305L51.3013 29.1674C51.7777 28.5676 51.9218 27.7689 51.6851 27.0406Z"/></g><defs><clipPath id="clip0_74187_16612"><rect width="78" height="78" fill="#fff"/></clipPath></defs></svg>