<svg xmlns="http://www.w3.org/2000/svg" width="754" height="724" fill="none" viewBox="0 0 754 724"><path fill="#0468D7" fill-rule="evenodd" d="M377.382 1.94805C452.331 -6.62678 520.816 37.5072 584.897 77.3149C648.593 116.884 716.648 159.133 743.262 229.238C769.558 298.501 739.242 372.631 724.582 445.254C709.258 521.169 712.657 608.446 656.046 661.296C598.79 714.748 511.685 710.122 433.647 716.86C354.95 723.656 274.919 733.215 203.063 700.411C125.2 664.864 53.4683 607.605 20.9249 528.44C-11.5787 449.371 -4.12252 356.963 29.5826 278.399C60.2952 206.81 134.362 170.354 195.343 121.883C253.655 75.5335 303.376 10.4149 377.382 1.94805Z" clip-rule="evenodd"/></svg>