<svg width="56" height="57" viewBox="0 0 56 57" fill="none" xmlns="http://www.w3.org/2000/svg">
<g clip-path="url(#clip0_74317_17401)">
<path d="M21.8722 35.6228V49.1664L32.0871 39.0759L21.8722 35.6228Z" fill="#EC5A32"/>
<path d="M1.09386 28.5808L26.8057 37.2949L54.9063 46.8186V1.26025L1.09386 28.5808Z" fill="#FEA02C"/>
<path d="M21.8722 35.6229L26.8057 37.2949L54.9063 46.8186V1.26025L21.8722 35.6229Z" fill="#FFC66C"/>
<path d="M55.4784 0.328124C55.1543 0.129172 54.7502 0.112875 54.4111 0.284921L0.598768 27.6054C0.206331 27.8047 -0.0284965 28.2198 0.00289405 28.6589C0.034394 29.0979 0.325987 29.4753 0.742814 29.6166L20.7821 36.4081C20.7806 36.4316 20.7785 36.4549 20.7785 36.4789V49.1664C20.7785 49.6075 21.0435 50.0055 21.4506 50.1756C21.5868 50.2325 21.73 50.2601 21.872 50.2601C22.1545 50.2601 22.4322 50.1507 22.6409 49.9445L32.3688 40.335L54.5552 47.8543C54.6697 47.8931 54.7883 47.9122 54.9062 47.9122C55.1319 47.9122 55.3553 47.8423 55.5435 47.7073C55.8301 47.5019 55.9999 47.171 55.9999 46.8184V1.26022C56 0.880029 55.8026 0.526968 55.4784 0.328124ZM51.09 4.42443L21.3221 34.2814L3.90692 28.3791L51.09 4.42443ZM22.966 46.5486V37.1484L30.0512 39.5496L22.966 46.5486ZM50.0938 44.0325V32.4306C50.0938 31.8266 49.6041 31.3369 49 31.3369C48.396 31.3369 47.9063 31.8266 47.9063 32.4306V43.2911L23.6309 35.0638L53.8125 4.79193V45.293L50.0938 44.0325Z" fill="black"/>
<path d="M49 27.0725C48.7123 27.0725 48.4302 27.1894 48.2267 27.393C48.0233 27.5964 47.9062 27.8786 47.9062 28.1663C47.9062 28.4539 48.0233 28.7361 48.2267 28.9394C48.4302 29.1429 48.7123 29.26 49 29.26C49.2877 29.26 49.5698 29.143 49.7733 28.9394C49.9767 28.7361 50.0938 28.4539 50.0938 28.1663C50.0938 27.8786 49.9767 27.5964 49.7733 27.393C49.5698 27.1895 49.2877 27.0725 49 27.0725Z" fill="black"/>
<path d="M13.7006 40.9191L5.58861 49.0312C5.1615 49.4583 5.1615 50.1508 5.58861 50.578C5.80222 50.7915 6.08211 50.8984 6.362 50.8984C6.64189 50.8984 6.92189 50.7915 7.13539 50.578L15.2474 42.466C15.6745 42.0389 15.6745 41.3463 15.2474 40.9191C14.8203 40.4921 14.1277 40.4921 13.7006 40.9191Z" fill="black"/>
<path d="M3.66417 51.4084C3.37651 51.4084 3.09432 51.5254 2.89088 51.7289C2.68745 51.9324 2.57042 52.2145 2.57042 52.5022C2.57042 52.7899 2.68745 53.072 2.89088 53.2754C3.09432 53.4788 3.37651 53.5959 3.66417 53.5959C3.95182 53.5959 4.23401 53.4789 4.43745 53.2754C4.64088 53.072 4.75792 52.7899 4.75792 52.5022C4.75792 52.2145 4.64088 51.9324 4.43745 51.7289C4.23401 51.5255 3.95182 51.4084 3.66417 51.4084Z" fill="black"/>
<path d="M36.2496 46.3701L28.3205 54.2991C27.8934 54.7262 27.8933 55.4188 28.3205 55.846C28.5341 56.0595 28.814 56.1664 29.0939 56.1664C29.3738 56.1664 29.6538 56.0595 29.8673 55.846L37.7964 47.917C38.2236 47.4899 38.2236 46.7973 37.7964 46.3701C37.3691 45.9431 36.6767 45.943 36.2496 46.3701Z" fill="black"/>
</g>
<defs>
<clipPath id="clip0_74317_17401">
<rect width="56" height="56" fill="white" transform="translate(0 0.166504)"/>
</clipPath>
</defs>
</svg>
