<svg width="47" height="27" viewBox="0 0 47 27" fill="none" xmlns="http://www.w3.org/2000/svg">
<path d="M38.6612 15.1003C37.908 14.1786 38.1234 13.7686 38.6612 12.9447C38.6709 12.9353 44.8889 4.61022 45.5295 1.78691L45.5334 1.78503C45.8518 0.756144 45.5334 0 43.994 0H38.9C37.6032 0 37.0052 0.648929 36.6849 1.37498C36.6849 1.37498 34.0913 7.39027 30.4223 11.2895C29.2381 12.4162 28.6906 12.7773 28.0442 12.7773C27.7258 12.7773 27.2308 12.4162 27.2308 11.3873V1.78503C27.2308 0.55112 26.8677 0 25.7942 0H17.7843C16.9709 0 16.4875 0.575572 16.4875 1.11164C16.4875 2.2816 18.3221 2.55058 18.5123 5.84225V12.9842C18.5123 14.5492 18.2192 14.837 17.5689 14.837C15.8372 14.837 11.6343 8.79723 9.14357 1.88472C8.64077 0.543596 8.14962 0.00188082 6.84312 0.00188082H1.74718C0.293138 0.00188082 0 0.65081 0 1.37686C0 2.65967 1.73165 9.03799 8.05255 17.4647C12.2652 23.2166 18.1978 26.3334 23.5947 26.3334C26.8386 26.3334 27.2346 25.6412 27.2346 24.4505C27.2346 18.9544 26.9415 18.4352 28.5664 18.4352C29.3196 18.4352 30.6164 18.7964 33.6448 21.5708C37.1062 24.8606 37.675 26.3334 39.6124 26.3334H44.7064C46.1585 26.3334 46.8943 25.6412 46.4711 24.2756C45.5024 21.4034 38.9563 15.4953 38.6612 15.1003V15.1003Z" fill="#4B729F"/>
</svg>
