<svg xmlns="http://www.w3.org/2000/svg" width="252" height="252" fill="none" viewBox="0 0 252 252"><path fill="#29B6F6" d="M231 58.3276V193.673C231 200.34 226.853 206.273 220.605 208.478L174.3 230.213L178.5 173.25V78.7501L174.3 21.7876L220.605 43.5226C226.853 45.7276 231 51.6601 231 58.3276Z"/><path fill="#0277BD" d="M47.25 177.954L178.5 78.7501V28.1033C178.5 21.8138 170.719 18.8738 166.556 23.5883L24.4545 153.505C19.7294 157.862 19.9972 165.407 25.0162 169.423C25.0162 169.423 31.9672 175.891 34.482 177.686C38.346 180.443 43.4227 180.758 47.25 177.954Z"/><path fill="#0288D1" d="M47.25 74.0461L178.5 173.25V223.897C178.5 230.186 170.719 233.126 166.556 228.412L24.4545 98.4953C19.7294 94.1378 19.9972 86.5936 25.0162 82.5774C25.0162 82.5774 31.9672 76.1093 34.482 74.3138C38.346 71.5576 43.4227 71.2426 47.25 74.0461Z"/></svg>